<svg width="572" height="616" viewBox="0 0 572 616" fill="none" xmlns="http://www.w3.org/2000/svg">
<g clip-path="url(#clip0_114_2)">
<ellipse cx="199" cy="572" rx="174" ry="12" fill="black" fill-opacity="0.5"/>
<path d="M207.686 431.091C206.377 431.284 204.837 431.386 204.525 432.945C204.284 434.153 204.375 435.396 205.099 436.444C206.336 438.234 208.174 439.279 210.388 438.91C212.367 438.581 215.086 436.787 215.086 434.559C215.086 433.303 214.181 432.039 213.433 431.099C212.631 430.092 211.938 429.032 210.928 428.208C209.566 427.097 208.465 426.988 207.24 428.298C206.57 429.015 205.936 429.993 205.643 430.932C205.498 431.395 205.605 431.766 205.605 432.23C205.605 432.848 205.49 431.936 205.605 431.63" stroke="#00ADB5" stroke-opacity="0.5" stroke-linecap="round" stroke-linejoin="round"/>
<path d="M214.469 434.63C215.583 435.619 216.527 436.513 218.497 436.561C219.876 436.595 221.254 436.251 222.546 435.88C223.472 435.615 226.438 434.21 224.034 434.097" stroke="#00ADB5" stroke-opacity="0.5" stroke-linecap="round" stroke-linejoin="round"/>
<path d="M225.955 426.003C224.485 427.626 222.457 430.807 223.219 433.245C223.487 434.102 223.876 434.679 224.379 435.412C225.393 436.886 226.963 436.426 228.388 436.041C229.42 435.762 230.647 434.883 231.043 433.883C231.588 432.503 230.451 430.345 229.501 429.395C228.44 428.334 227.6 427.043 226.418 426.114C226.103 425.867 225.864 425.599 225.454 425.69C224.993 425.793 224.803 426.234 225.416 426.234" stroke="#00ADB5" stroke-opacity="0.5" stroke-linecap="round" stroke-linejoin="round"/>
<path d="M329.866 203.582C328.557 203.776 327.017 203.878 326.706 205.437C326.464 206.645 326.556 207.888 327.28 208.936C328.517 210.726 330.355 211.771 332.568 211.402C334.548 211.072 337.266 209.279 337.266 207.051C337.266 205.795 336.362 204.531 335.613 203.591C334.811 202.583 334.118 201.524 333.108 200.7C331.746 199.589 330.646 199.48 329.421 200.79C328.751 201.507 328.117 202.485 327.823 203.424C327.679 203.887 327.785 204.258 327.785 204.722C327.785 205.34 327.67 204.428 327.785 204.122" stroke="#00ADB5" stroke-opacity="0.5" stroke-linecap="round" stroke-linejoin="round"/>
<path d="M336.65 207.122C337.764 208.111 338.708 209.005 340.677 209.053C342.056 209.087 343.435 208.743 344.727 208.372C345.652 208.107 348.618 206.702 346.215 206.589" stroke="#00ADB5" stroke-opacity="0.5" stroke-linecap="round" stroke-linejoin="round"/>
<path d="M348.135 198.495C346.666 200.118 344.637 203.299 345.399 205.737C345.667 206.594 346.056 207.171 346.559 207.903C347.573 209.377 349.143 208.918 350.568 208.533C351.601 208.254 352.828 207.375 353.223 206.375C353.769 204.994 352.631 202.837 351.681 201.887C350.62 200.826 349.78 199.535 348.598 198.606C348.283 198.359 348.045 198.091 347.634 198.182C347.173 198.285 346.983 198.726 347.596 198.726" stroke="#00ADB5" stroke-opacity="0.5" stroke-linecap="round" stroke-linejoin="round"/>
<path d="M217.125 156.395C224.672 152.8 230.772 146.855 236.907 141.249C241.728 136.843 246.784 132.49 252.105 128.688C253.155 127.937 254.638 126.428 256.057 127.071C257.464 127.709 258.274 129.445 259.386 130.473C262.123 133.005 264.585 136.099 266.835 139.074C269.313 142.349 265.598 144.162 263.301 146.306C260.692 148.742 258.2 151.254 255.351 153.403C252.642 155.446 250.466 158.262 247.986 160.575C244.207 164.1 240.672 167.853 236.904 171.381C234.661 173.481 232.087 175.196 229.927 177.371C229.17 178.133 228.47 179.141 227.597 179.775C226.896 180.285 225.926 178.325 225.676 177.956C223.695 175.026 220.626 173.021 218.686 169.957C217.467 168.03 216.646 165.652 215.186 163.892C214.489 163.052 212.747 161.161 213.51 159.934C214.29 158.681 216.503 158.081 217.71 157.184C218.651 156.484 219.795 155.621 220.866 155.134C221.644 154.781 222.408 154.154 223.104 153.672C224.936 152.402 222.995 152.945 221.756 153.417" stroke="#00ADB5" stroke-opacity="0.5" stroke-linecap="round" stroke-linejoin="round"/>
<path d="M218.278 162.148C222.872 164.992 226.993 169.108 230.58 173.167C230.67 173.27 231.543 173.878 231.41 174.103C231.153 174.538 228.171 172.575 227.887 172.379" stroke="#00ADB5" stroke-opacity="0.5" stroke-linecap="round" stroke-linejoin="round"/>
<path d="M222.832 158.036C226.557 159.102 228.777 161.132 231.784 163.303C233.124 164.27 234.488 165.143 235.69 166.281C236.255 166.815 236.657 167.518 237.179 168.094C237.894 168.883 234.974 167.178 234.63 166.981" stroke="#00ADB5" stroke-opacity="0.5" stroke-linecap="round" stroke-linejoin="round"/>
<path d="M228.244 154.848C230.851 157.201 233.471 159.521 236.159 161.778C237.18 162.636 238.34 163.423 239.222 164.434C240.788 166.227 238.737 163.9 238.041 163.243" stroke="#00ADB5" stroke-opacity="0.5" stroke-linecap="round" stroke-linejoin="round"/>
<path d="M231.896 152.606C233.83 153.781 235.849 154.92 237.486 156.505C238.158 157.156 238.715 157.922 239.433 158.524C240.317 159.266 241.092 160.132 241.982 160.853C243.25 161.88 243.441 162.18 241.935 160.891" stroke="#00ADB5" stroke-opacity="0.5" stroke-linecap="round" stroke-linejoin="round"/>
<path d="M236.604 149.154C238.737 150.824 240.712 152.519 242.495 154.555C243.285 155.457 243.922 156.498 244.924 157.19C245.843 157.824 246.486 158.007 245.411 156.977" stroke="#00ADB5" stroke-opacity="0.5" stroke-linecap="round" stroke-linejoin="round"/>
<path d="M241.137 145.637C243.015 147.048 244.866 148.336 246.367 150.154C247.053 150.986 247.595 151.942 248.362 152.709C249.92 154.268 248.849 153.482 247.722 152.424" stroke="#00ADB5" stroke-opacity="0.5" stroke-linecap="round" stroke-linejoin="round"/>
<path d="M245.317 141.987C247.954 144.509 250.162 147.463 252.803 149.954C254.582 151.632 252.034 148.944 251.617 148.466" stroke="#00ADB5" stroke-opacity="0.5" stroke-linecap="round" stroke-linejoin="round"/>
<path d="M250.421 139.085C252.641 138.179 254.943 137.099 256.135 134.884C256.464 134.274 256.888 133.742 257.023 133.054C257.209 132.109 257.172 132.515 256.472 133.126" stroke="#00ADB5" stroke-opacity="0.5" stroke-linecap="round" stroke-linejoin="round"/>
<path d="M253.994 142.133C255.754 140.5 257.721 138.716 259.01 136.644C259.653 135.61 260.878 134.348 259.165 135.843" stroke="#00ADB5" stroke-opacity="0.5" stroke-linecap="round" stroke-linejoin="round"/>
<path d="M259.635 145.555C261.238 143.813 262.665 142.192 264.141 140.371C264.617 139.782 266.07 139.018 264.322 139.485" stroke="#00ADB5" stroke-opacity="0.5" stroke-linecap="round" stroke-linejoin="round"/>
<path d="M258.36 144.674C260.038 143.236 261.935 141.562 263.265 139.747C263.62 139.262 263.893 138.723 264.218 138.219C264.762 137.376 264.796 137.661 263.971 137.748" stroke="#00ADB5" stroke-opacity="0.5" stroke-linecap="round" stroke-linejoin="round"/>
<path d="M222.808 165.053C231.168 161.657 233.231 152.44 240.043 147.228C240.872 146.594 241.545 145.889 242.512 145.45C243.158 145.157 243.956 145.016 244.544 144.641C244.903 144.411 247.882 142.135 245.812 143.076" stroke="#00ADB5" stroke-opacity="0.5" stroke-linecap="round" stroke-linejoin="round"/>
<path d="M218.915 162.588C219.854 161.447 220.687 160.471 221.877 159.646C222.072 159.51 222.373 159.488 222.534 159.307C222.852 158.949 223.334 158.425 223.456 157.964C223.939 156.145 226.297 156.481 227.55 155.569C228.741 154.702 229.888 153.823 231.103 152.966C232.441 152.022 233.06 151.194 234.135 149.984C235.122 148.872 236.081 147.748 237.126 146.696C237.981 145.835 239.324 145.052 239.868 143.95C240.482 142.707 242.052 141.284 243.465 141.514C243.95 141.594 247.515 143.66 245.185 142.339" stroke="#00ADB5" stroke-opacity="0.5" stroke-linecap="round" stroke-linejoin="round"/>
<path d="M226.48 167.033C232.763 163.72 236.249 156.495 240.492 151.037C242.055 149.027 244.288 147.691 245.924 145.716C246.624 144.871 248.169 143.974 246.372 143.989" stroke="#00ADB5" stroke-opacity="0.5" stroke-linecap="round" stroke-linejoin="round"/>
<path d="M228.723 169.08C234.416 165.58 238.06 159.069 242.202 153.91C244.086 151.562 245.905 149.166 247.812 146.837C248.682 145.776 250.198 145.113 248.252 146.2" stroke="#00ADB5" stroke-opacity="0.5" stroke-linecap="round" stroke-linejoin="round"/>
<path d="M230.966 172.732C234.518 169.268 237.386 165.53 240.292 161.523C242.059 159.087 243.587 156.348 245.662 154.155C246.853 152.896 247.769 151.422 248.85 150.088C249.286 149.55 249.586 148.924 250.034 148.391C251.042 147.19 250.339 148.276 249.637 148.928" stroke="#00ADB5" stroke-opacity="0.5" stroke-linecap="round" stroke-linejoin="round"/>
<path d="M231.801 174.25C233.569 172.518 236.159 170.852 237.338 168.605C237.766 167.79 238.825 165.821 239.568 165.322C240.551 164.662 241.019 163.259 241.733 162.377C242.478 161.458 243.207 160.561 244.015 159.687C244.772 158.867 245.015 157.428 245.952 156.723C246.997 155.937 247.505 154.72 248.339 153.782C249.06 152.97 250.433 152.129 251.328 151.508C251.824 151.165 252.17 150.696 252.732 150.441C253.872 149.923 253.132 150.188 252.089 150.149" stroke="#00ADB5" stroke-opacity="0.5" stroke-linecap="round" stroke-linejoin="round"/>
<path d="M250.278 139.734C251.74 140.119 253.543 140.384 254.876 141.181C255.736 141.695 256.485 142.211 254.919 141.275" stroke="#00ADB5" stroke-opacity="0.5" stroke-linecap="round" stroke-linejoin="round"/>
<path d="M251.796 137.293C253.882 137.838 255.357 138.449 257.057 139.558C258.17 140.283 257.991 140.082 256.833 139.384" stroke="#00ADB5" stroke-opacity="0.5" stroke-linecap="round" stroke-linejoin="round"/>
<path d="M254.327 134.83C256.118 135.837 257.856 136.982 259.708 137.859C260.797 138.375 260.226 138.339 259.385 137.933" stroke="#00ADB5" stroke-opacity="0.5" stroke-linecap="round" stroke-linejoin="round"/>
<path d="M255.768 132.862C257.651 133.719 259.388 134.573 261.122 135.652C261.913 136.144 261.195 136.176 260.595 135.778" stroke="#00ADB5" stroke-opacity="0.5" stroke-linecap="round" stroke-linejoin="round"/>
<path d="M251.202 138.876C252.625 137.184 254.052 135.581 255.348 133.847C255.716 133.355 257.958 130.612 256.989 132.015" stroke="#00ADB5" stroke-opacity="0.5" stroke-linecap="round" stroke-linejoin="round"/>
<path d="M252.697 141.846C254.548 140.209 257.216 138.027 257.814 135.581C257.99 134.862 258.371 134.143 258.93 133.647C259.497 133.145 260.09 132.919 259.243 133.765" stroke="#00ADB5" stroke-opacity="0.5" stroke-linecap="round" stroke-linejoin="round"/>
<path d="M251.212 141.791C253.186 139.664 254.874 138.235 255.989 135.616C256.279 134.935 256.611 134.372 257.086 133.836C257.59 133.269 258.313 132.738 257.34 133.753" stroke="#00ADB5" stroke-opacity="0.5" stroke-linecap="round" stroke-linejoin="round"/>
<path d="M258.547 142.838C259.456 143.414 260.368 143.948 261.313 144.428C261.703 144.626 261.22 144.243 261.054 144.18" stroke="#00ADB5" stroke-opacity="0.5" stroke-linecap="round" stroke-linejoin="round"/>
<path d="M260.319 139.99C260.38 140.042 263.954 143.105 263.32 142.422" stroke="#00ADB5" stroke-opacity="0.5" stroke-linecap="round" stroke-linejoin="round"/>
<path d="M262.442 138.88C263.23 139.638 265.645 141.857 264.795 141.168" stroke="#00ADB5" stroke-opacity="0.5" stroke-linecap="round" stroke-linejoin="round"/>
<path d="M257.491 144.047C258.798 142.831 261.663 140.42 262.365 138.55C262.642 137.813 263.909 136.866 262.717 137.879" stroke="#00ADB5" stroke-opacity="0.5" stroke-linecap="round" stroke-linejoin="round"/>
<path d="M257.656 144.41C257.78 144.51 260.279 147.201 260.812 145.896C261.084 145.23 261.438 144.362 262.105 143.995C263.276 143.351 263.492 141.322 264.69 140.778C266.05 140.16 265.923 139.125 264.657 138.758C264.159 138.613 264.552 137.633 264.035 137.71C263.562 137.781 263.312 137.606 262.783 137.703" stroke="#00ADB5" stroke-opacity="0.5" stroke-linecap="round" stroke-linejoin="round"/>
<path d="M250.113 139.371C250.97 141.009 251.132 141.602 252.515 142.285C252.888 142.47 253.376 142.214 253.659 142.358C254.219 142.642 255.327 142.648 255.746 142.132C256.587 141.093 256.897 140.423 258.185 139.791C258.999 139.393 259.653 138.452 260.029 137.673C260.442 136.816 261.187 136.171 261.624 135.311C261.81 134.945 260.309 134.002 260.295 133.368C260.292 133.188 258.51 133.183 258.213 133.033C257.854 132.85 257.689 132.593 257.517 132.214C257.265 131.659 256.819 132.348 256.142 132.4" stroke="#00ADB5" stroke-opacity="0.5" stroke-linecap="round" stroke-linejoin="round"/>
<path d="M220.434 160.147C222.458 160.916 224.224 161.908 226.046 163.006C227.629 163.96 229.417 164.467 230.989 165.391C232.108 166.049 233.27 167.551 234.096 168.537C234.371 168.866 234.577 169.173 234.772 169.544C235.22 170.394 234.754 168.339 234.707 168.114" stroke="#00ADB5" stroke-opacity="0.5" stroke-linecap="round" stroke-linejoin="round"/>
<path d="M239.982 144.701C240.544 145.291 242.817 148.545 242.368 146.099" stroke="#00ADB5" stroke-opacity="0.5" stroke-linecap="round" stroke-linejoin="round"/>
<path d="M244.661 370.572C244.902 371.811 245.514 372.616 245.989 373.744C246.312 374.511 246.916 375.106 247.253 375.859C247.616 376.672 248.161 377.628 248.667 378.352C249.102 378.972 249.386 379.56 249.935 380.109C250.903 381.077 251.636 382.232 252.61 383.187C254.025 384.575 256.421 386.386 258.482 386.272C259.144 386.235 259.877 386.44 260.527 386.342C261.084 386.258 261.761 386.23 262.319 386.326C263.236 386.485 264.232 386.325 265.109 386.515C265.583 386.618 266.099 386.468 266.578 386.557C267.2 386.672 267.929 386.701 268.562 386.701C270.636 386.701 272.705 386.688 274.774 386.426C275.895 386.283 277.005 386.655 278.115 386.458C279.156 386.272 280.543 386.464 281.523 386.035C282.727 385.508 283.924 384.68 284.854 383.75C285.321 383.284 285.674 382.727 285.99 382.15C286.405 381.393 286.636 380.576 287.053 379.821C288.506 377.186 289.335 374.253 290.512 371.507C290.789 370.859 291.245 370.335 291.578 369.737C291.662 369.586 291.7 369.393 291.837 369.247C292.35 368.704 291.367 368.646 290.915 368.441" stroke="#00ADB5" stroke-opacity="0.5" stroke-linecap="round" stroke-linejoin="round"/>
<path d="M244.43 370.687C245.46 369.341 246.333 368.351 247.829 367.59C249.081 366.952 250.38 366.195 251.512 365.362C253.251 364.084 255.645 363.514 257.762 363.129C260.067 362.71 262.335 362.22 264.681 362.22C265.406 362.22 266.124 362.438 266.85 362.45C267.719 362.465 268.59 362.492 269.455 362.566C270.783 362.679 272.145 362.652 273.474 362.681C275.329 362.721 277.105 363.681 278.959 363.83C280.063 363.918 281.349 364.083 282.422 364.383C282.824 364.496 283.282 364.572 283.657 364.754C284.124 364.981 284.451 365.365 284.88 365.631C286.263 366.492 287.81 366.897 289.305 367.551C289.764 367.752 290.552 368.095 291.059 368.095C291.758 368.095 291.721 369.385 291.721 368.095" stroke="#00ADB5" stroke-opacity="0.5" stroke-linecap="round" stroke-linejoin="round"/>
<path d="M291.606 368.902C290.752 370.047 290.143 370.483 288.931 371.151C287.979 371.676 286.925 372.048 285.859 372.243C284.863 372.425 283.776 372.568 282.767 372.649C281.928 372.716 281.071 372.619 280.214 372.716C278.274 372.937 276.318 373.437 274.447 373.984C271.777 374.764 269.198 374.845 266.44 374.995C263.43 375.158 260.411 374.928 257.461 374.316C256.466 374.11 255.414 374.295 254.402 374.256C253.286 374.212 252.193 373.905 251.144 373.542C250.702 373.389 250.295 373.155 249.832 373.049C249.29 372.926 248.738 372.974 248.2 372.844C247.45 372.663 246.574 372.336 245.941 371.897C245.665 371.706 245.251 371.549 245.035 371.26C244.972 371.176 244.891 370.989 244.891 370.889C244.891 370.651 244.696 370.711 245.006 370.918" stroke="#00ADB5" stroke-opacity="0.5" stroke-linecap="round" stroke-linejoin="round"/>
<path d="M266.838 380.595C267.539 380.517 268.465 380.53 268.175 379.629C268.082 379.339 267.848 379.308 267.599 379.225C266.858 378.978 265.532 379.457 265.253 380.23C264.754 381.618 265.7 383.118 267.186 382.637C267.591 382.506 268.308 382.22 268.566 381.853C268.874 381.412 268.411 381.542 268.105 381.113" stroke="#00ADB5" stroke-opacity="0.5" stroke-linecap="round" stroke-linejoin="round"/>
<path d="M264.706 379.097C265.824 378.649 266.395 378.464 267.526 378.464C267.981 378.464 268.209 378.432 268.61 378.694C269.274 379.128 269.502 379.952 269.433 380.678C269.374 381.291 269.172 382.131 268.956 382.713C268.796 383.146 268.399 383.221 267.993 383.302C267.622 383.376 266.813 383.169 266.521 383.331C266.211 383.503 265.263 383.561 265.023 383.241C264.803 382.947 264.566 382.821 264.405 382.464C264.252 382.123 264.183 381.798 264.06 381.459C263.891 380.994 263.587 379.723 264.217 379.443C264.586 379.279 264.744 379.181 265.167 379.181C265.287 379.181 265.39 379.27 265.513 379.27C265.69 379.27 265.171 379.155 264.994 379.155" stroke="#00ADB5" stroke-opacity="0.5" stroke-linecap="round" stroke-linejoin="round"/>
<path d="M266.722 374.489C267.535 373.439 268.276 372.355 269.116 371.334C269.567 370.785 270.127 370.313 270.614 369.788C272.006 368.285 273.424 366.639 274.486 364.882C275.531 363.152 276.958 361.267 278.508 359.967C279.327 359.28 280.059 358.522 280.771 357.73C281.462 356.962 281.78 355.889 282.435 355.077C282.942 354.449 286.26 350.174 286.838 352.773C287.065 353.795 286.069 354.509 285.443 355.135C284.733 355.845 284.019 356.747 283.414 357.554C282.831 358.332 282.121 359.016 281.555 359.801C280.784 360.868 279.381 361.632 278.819 362.841C278.355 363.838 277.585 364.64 277.007 365.564C276.207 366.845 275.269 367.915 274.326 369.087C273.578 370.016 272.407 370.78 271.878 371.839C271.435 372.724 270.651 373.097 269.935 373.67C269.624 373.919 269.245 374.058 268.969 374.403C268.877 374.518 268.712 374.65 268.626 374.521C268.577 374.448 268.39 374.613 268.425 374.694C268.548 374.981 268.249 374.005 268.22 373.913" stroke="#00ADB5" stroke-opacity="0.5" stroke-linecap="round" stroke-linejoin="round"/>
<path d="M266.261 374.777C266.482 374.889 267.874 375.946 267.874 375.094C267.874 374.836 268.206 374.406 268.322 374.144C268.411 373.945 267.615 374.135 267.497 374.288C267.342 374.486 267.042 374.648 267.529 374.662C267.903 374.673 268.195 374.512 268.479 374.291C268.561 374.227 269.66 374.401 268.681 374.374C268.16 374.359 267.654 374.374 267.154 374.374C266.722 374.374 267.598 374.259 267.724 374.259C267.825 374.259 266.994 374.753 266.85 374.592C266.815 374.552 266.755 374.444 266.895 374.374" stroke="#00ADB5" stroke-opacity="0.5" stroke-linecap="round" stroke-linejoin="round"/>
<path d="M247.944 370.515C248.009 370.549 250.067 371.627 250.075 371.494C250.085 371.333 249.97 371.192 250.05 371.033C250.398 370.336 250.849 370.671 251.448 370.94C251.916 371.151 251.206 368.82 252.616 369.804C253.345 370.313 253.539 370.232 253.419 369.379C253.329 368.733 253.552 368.731 254.107 368.799C254.485 368.846 254.756 368.928 254.971 368.569C255.233 368.133 255.528 367.885 256.063 368.073C256.506 368.229 256.9 368.668 257.205 368.108C257.339 367.862 257.226 367.125 257.65 367.267C257.916 367.355 258.266 367.702 258.568 367.593C258.798 367.51 258.974 366.799 259.234 366.911C259.505 367.029 259.781 367.543 260.124 367.42C260.289 367.361 260.595 366.821 260.271 366.886" stroke="#00ADB5" stroke-opacity="0.5" stroke-linecap="round" stroke-linejoin="round"/>
<path d="M256.066 369.478C256.78 370.059 259.454 373.162 260.239 370.844C260.38 370.429 260.402 369.607 260.796 370.287C261.12 370.848 261.609 371.237 262.14 370.707C262.492 370.355 262.648 369.758 263.151 369.574C263.613 369.405 263.951 370.273 264.335 369.766C264.645 369.357 264.495 368.654 264.041 368.409C263.892 368.328 263.85 368.606 263.785 368.671" stroke="#00ADB5" stroke-opacity="0.5" stroke-linecap="round" stroke-linejoin="round"/>
<path d="M262.229 365.907C263.342 365.715 264.743 365.326 265.589 366.323C265.982 366.784 265.944 367.374 265.685 367.897C265.496 368.279 264.987 368.47 264.661 368.095C264.395 367.788 264.945 367.281 265.141 367.094C265.816 366.451 266.815 367.48 267.026 368.179C267.203 368.762 265.608 370.114 265.801 369.535" stroke="#00ADB5" stroke-opacity="0.5" stroke-linecap="round" stroke-linejoin="round"/>
<path d="M280.95 367.865C281.28 367.751 283.406 367.067 282.998 368.198C282.789 368.778 281.987 369.089 281.462 369.279C281.213 369.369 280.571 369.354 280.988 368.991C281.349 368.678 281.858 368.53 282.332 368.569C284.181 368.719 281.596 370.843 281.065 371.136C280.034 371.704 278.631 372.303 277.551 371.609" stroke="#00ADB5" stroke-opacity="0.5" stroke-linecap="round" stroke-linejoin="round"/>
<path d="M269.602 364.466C270.041 365.18 270.568 365.896 270.943 366.646C271.072 366.904 270.514 366.243 270.383 365.987C270.348 365.919 270.108 365.162 270.085 365.167C269.805 365.23 269.739 366.514 269.663 366.751C269.304 367.873 268.417 367.443 267.548 367.359C266.495 367.258 266.024 368.296 265.442 368.959C264.976 369.49 264.793 369.653 265.109 370.284C265.365 370.795 265.471 371.291 265.109 371.753C264.827 372.114 264.474 372.342 264.133 372.64C263.821 372.912 264.269 372.867 264.21 372.704C264.05 372.256 263.064 372.349 262.741 372.371C261.542 372.45 260.321 372.149 259.144 372.224C258.519 372.263 257.93 372.612 257.311 372.704C256.681 372.797 257.513 373.343 257.749 373.5C258.155 373.771 256.955 372.925 256.514 372.716C255.774 372.366 255.092 372.096 254.709 371.321C254.325 370.545 253.988 370.016 253.339 369.446C253.116 369.249 253.089 368.951 253.198 368.684C253.451 368.067 254.012 367.565 254.568 367.231" stroke="#00ADB5" stroke-opacity="0.5" stroke-linecap="round" stroke-linejoin="round"/>
<path d="M269.487 366.771C268.043 365.763 266.852 365.329 265.154 365.1C264.557 365.02 263.921 364.607 263.532 364.15C263.186 363.744 263.382 363.852 262.975 364.402C262.419 365.155 262.006 364.48 261.295 364.678C260.206 364.981 259.271 365.994 258.165 366.182C257.862 366.233 257.935 365.727 257.557 365.945C256.92 366.312 256.433 366.66 255.688 366.777C255.238 366.848 254.384 367.144 254.453 367.692" stroke="#00ADB5" stroke-opacity="0.5" stroke-linecap="round" stroke-linejoin="round"/>
<path d="M279.279 366.771C280.673 366.905 282.084 366.888 283.472 367.036C283.96 367.088 284.21 367.286 284.553 367.606C284.863 367.894 285.347 368.574 285.792 368.611C286.433 368.664 286.764 368.398 287.363 368.211C287.723 368.098 288.873 368.211 288.496 368.211" stroke="#00ADB5" stroke-opacity="0.5" stroke-linecap="round" stroke-linejoin="round"/>
<path d="M278.243 368.326C276.745 369.313 275.945 370.81 274.342 371.708C274.024 371.886 273.053 372.231 273.126 372.816C273.179 373.239 276.424 371.914 276.918 371.667" stroke="#00ADB5" stroke-opacity="0.5" stroke-linecap="round" stroke-linejoin="round"/>
<path d="M283.83 369.708C284.644 370.314 285.347 371.181 286.365 370.873C286.64 370.79 287.216 370.757 287.401 370.572" stroke="#00ADB5" stroke-opacity="0.5" stroke-linecap="round" stroke-linejoin="round"/>
<path d="M485.132 344.597C480.925 345.404 477.867 346.619 475.201 350.047C473.511 352.219 473.882 355.638 474.989 357.941C476.813 361.736 481.298 363.879 485.344 364.065C490.057 364.281 496.609 362.896 497.575 357.275C498.093 354.262 495.214 351.413 493.866 348.942C492.77 346.931 491.118 344.221 488.81 343.371C487.868 343.024 485.681 343.144 484.995 344.082C484.689 344.501 484.295 344.944 484.072 345.414C483.891 345.796 484.085 344.444 484.042 344.052" stroke="#00ADB5" stroke-opacity="0.5" stroke-linecap="round" stroke-linejoin="round"/>
<path d="M486.903 354.951C485.768 355.535 483.926 355.921 484.92 357.199C485.146 357.491 485.469 357.475 485.745 357.199C485.98 356.964 487.167 355.728 486.29 355.436C484.502 354.84 485.156 358.407 486.433 356.829C487.12 355.981 486.159 355.146 485.298 355.663C484.272 356.278 485.084 357.353 485.889 356.42C486.495 355.716 486.011 355.177 485.351 355.837C484.76 356.428 485.36 357.37 485.941 356.571C486.537 355.752 485.858 355.058 485.139 355.776C484.307 356.608 485.208 356.521 485.798 355.973C486.392 355.421 485.338 355.502 484.995 355.935C484.2 356.941 485.446 356.798 485.646 355.935C485.941 354.668 484.634 357.58 485.268 355.36" stroke="#00ADB5" stroke-opacity="0.5" stroke-linecap="round" stroke-linejoin="round"/>
<path d="M482.271 350.728C483.481 352.325 484.721 353.839 485.737 355.436C486.019 355.878 485.794 356.322 485.949 356.314C486.522 356.282 487.11 356.178 487.72 356.178C489.118 356.178 490.218 355.496 491.565 355.496C493.196 355.496 495.593 355.073 492.897 353.725" stroke="#00ADB5" stroke-opacity="0.5" stroke-linecap="round" stroke-linejoin="round"/>
<path d="M480.908 344.461C480.653 343.173 479.41 340.05 481.725 340.381C482.556 340.5 483.114 341.359 483.603 341.902C484.874 343.315 484.738 345.021 482.679 345.142C482.14 345.174 481.38 346.243 480.772 345.483C480.083 344.621 480.786 344.679 480.908 343.643C480.988 342.966 480.545 343.022 480.355 342.356C480.21 341.846 480.512 341.287 480.635 340.918" stroke="#00ADB5" stroke-opacity="0.5" stroke-linecap="round" stroke-linejoin="round"/>
<path d="M481.726 342.962C481.713 343.287 481.212 346.22 482.278 345.74C482.635 345.579 482.944 345.346 483.088 344.975C483.228 344.617 483.079 344.402 482.921 344.052C482.515 343.149 481.336 341.745 481.695 343.779C481.922 345.063 483.355 344.763 483.466 343.537C483.552 342.601 482.371 341.347 481.62 342.417C481.088 343.174 482.035 344.842 482.588 343.673C482.87 343.08 482.197 341.571 481.483 342.311C480.751 343.069 481.851 344.669 482.573 344.022C483.287 343.382 482.802 341.43 482.028 342.175C481.321 342.856 482.382 344.212 482.921 343.174C483.523 342.016 482.198 341.143 481.786 342.356C481.418 343.44 482.565 344.604 482.831 343.128C483.033 342.005 480.969 341.408 480.969 342.75C480.969 343.987 482.074 343.86 482.074 342.735C482.074 341.562 480.893 341.826 481.385 342.811C481.877 343.795 482.537 342.048 481.983 341.494C481.336 340.847 480.479 341.847 481.241 342.47C481.76 342.895 482.47 341.132 481.597 340.805C480.843 340.522 481.26 342.062 481.521 341.713C481.926 341.173 481.305 340.811 481.733 340.918C482.11 341.013 483.026 341.214 483.285 341.547C483.488 341.808 484.314 343.265 484.314 343.643C484.314 344.8 482.544 345.424 481.529 345.134C480.8 344.926 480.584 345.441 480.84 345.271C481.46 344.857 481.589 343.779 481.589 344.188" stroke="#00ADB5" stroke-opacity="0.5" stroke-linecap="round" stroke-linejoin="round"/>
<path d="M481.589 363.943C480.888 365.432 480.265 366.927 479.44 368.334C479.254 368.65 478.905 369.297 478.864 369.666C478.754 370.66 479.752 367.295 479.954 366.805" stroke="#00ADB5" stroke-opacity="0.5" stroke-linecap="round" stroke-linejoin="round"/>
<path d="M495.35 361.082C497.075 363.261 498.978 364.815 500.323 367.206C500.455 367.441 500.685 367.628 500.868 367.811C501.48 368.423 499.732 366.505 499.165 365.851" stroke="#00ADB5" stroke-opacity="0.5" stroke-linecap="round" stroke-linejoin="round"/>
<path d="M381.065 234.051C382.144 238.123 386.31 253.26 387.307 258.791C390.051 274.019 385.745 253.24 385.735 259.966" stroke="#00ADB5" stroke-opacity="0.5" stroke-width="2" stroke-linecap="round" stroke-linejoin="round"/>
<path d="M373.754 240.634C373.386 234.438 371.996 225.838 380.684 226.723C384.772 227.14 389.274 229.566 391.822 232.812C395.76 237.828 393.683 245.604 389.428 249.596C387.163 251.72 384.966 252.785 382.003 253.588C376.982 254.949 380.944 247.976 381.753 246.064" stroke="#00ADB5" stroke-opacity="0.5" stroke-width="2" stroke-linecap="round" stroke-linejoin="round"/>
<path d="M396.352 248.207C404.985 247.745 412.931 246.046 416.02 255.408C417.814 260.849 420 267.46 418.504 273.194C417.152 278.375 414.24 281.614 408.916 279.407C401.308 276.253 401.318 270.315 405.459 264.393C406.984 262.213 412.823 257.847 412.827 255.298" stroke="#00ADB5" stroke-opacity="0.5" stroke-width="2" stroke-linecap="round" stroke-linejoin="round"/>
<path d="M411.912 238.104C411.618 240.375 411.613 256.444 407.264 256.598C406.448 256.627 405.764 257.051 405.051 257.406C402.313 258.769 403.979 257.542 405.001 256.123C407.316 252.909 412.006 254.097 414.353 249.831C416.903 245.199 418.077 242.921 414.422 239.338C411.861 236.826 412.986 232.555 410.969 238.573" stroke="#00ADB5" stroke-opacity="0.5" stroke-width="2" stroke-linecap="round" stroke-linejoin="round"/>
<path d="M424.653 223.522C427.99 231.033 431.039 240.815 436.392 247.354C437.806 249.082 438.6 247.578 438.578 246.232C438.551 244.532 438.072 242.816 437.579 241.206" stroke="#00ADB5" stroke-opacity="0.5" stroke-width="2" stroke-linecap="round" stroke-linejoin="round"/>
<path d="M414.966 243.055C420.26 240.972 433.258 238.864 435.473 232.253" stroke="#00ADB5" stroke-opacity="0.5" stroke-width="2" stroke-linecap="round" stroke-linejoin="round"/>
<path d="M431.247 223.768C454.192 263.902 431.838 235.694 443.5 228.353C450.58 223.898 451.17 244.897 453.132 235.814" stroke="#00ADB5" stroke-opacity="0.5" stroke-width="2" stroke-linecap="round" stroke-linejoin="round"/>
<path d="M451.74 222.387C452.572 224.876 455.368 241.307 461.189 237.554C463.792 235.875 466.824 232.675 467.325 229.529C467.864 226.154 465.755 217.579 460.984 218.502C458.806 218.924 455.164 219.025 453.744 221.095C452.371 223.095 451.504 227.779 453.152 222.86" stroke="#00ADB5" stroke-opacity="0.5" stroke-width="2" stroke-linecap="round" stroke-linejoin="round"/>
<path d="M467.997 218.409C474.504 214.231 482.152 212.86 483.142 222.698C483.266 223.933 483.289 225.488 483.856 226.625C484.512 227.943 483.163 223.403 481.886 222.67" stroke="#00ADB5" stroke-opacity="0.5" stroke-width="2" stroke-linecap="round" stroke-linejoin="round"/>
<path d="M467.52 222.176C467.814 227.319 467.079 234.286 469.482 239.111C469.564 239.275 470.135 240.534 469.847 239.844C469.278 238.479 469.042 237.553 467.969 236.073" stroke="#00ADB5" stroke-opacity="0.5" stroke-width="2" stroke-linecap="round" stroke-linejoin="round"/>
<path d="M302.833 268.734C301.932 277.093 303.503 302.829 289.305 301.227C286.345 300.894 283.657 300.399 282.251 297.61C280.778 294.69 279.56 292.149 279.414 288.832C279.234 284.758 280.856 282.835 284.15 280.996C285.305 280.352 282.823 282.962 282.603 283.215C281.155 284.878 286.067 282.851 287.945 282.435" stroke="#00ADB5" stroke-opacity="0.5" stroke-width="2" stroke-linecap="round" stroke-linejoin="round"/>
<path d="M321.06 272.75C313.879 273.422 303.743 274.783 302.584 283.767C301.956 288.64 309.201 289.232 312.345 290.892C317.748 293.743 321.848 303.043 315.787 307.136C311.573 309.982 308.385 308.469 304.286 308.753C300.121 309.042 303.021 307.507 305.49 307.086" stroke="#00ADB5" stroke-opacity="0.5" stroke-width="2" stroke-linecap="round" stroke-linejoin="round"/>
<path d="M359.973 51.5733C359.397 57.3405 359.047 63.1668 358.336 68.9203C358.267 69.4739 357.722 71.6592 358.367 69.8924C358.838 68.6006 358.686 67.2544 359.442 66.0294C360.485 64.3421 365.194 57.9151 367.406 58.5652C371.839 59.8682 367.365 68.0911 366.096 70.4474C365.658 71.26 364.465 73.0228 365.083 73.9341C365.906 75.149 367.429 70.6592 367.494 70.5218" stroke="#00ADB5" stroke-opacity="0.5" stroke-width="2" stroke-linecap="round" stroke-linejoin="round"/>
<path d="M377.482 55.3603C376.956 57.9369 372.543 70.655 376.795 72.7616C377.995 73.3561 380.65 72.2339 381.475 71.2665C382.334 70.2591 381.885 68.7166 381.792 67.5474" stroke="#00ADB5" stroke-opacity="0.5" stroke-width="2" stroke-linecap="round" stroke-linejoin="round"/>
<path d="M368.733 55.6382C373.398 57.0256 378.196 57.9493 382.832 59.3807C383.926 59.7186 384.336 59.8716 384.925 60.8477C385.841 62.366 383.407 60.9791 382.987 60.5192" stroke="#00ADB5" stroke-opacity="0.5" stroke-width="2" stroke-linecap="round" stroke-linejoin="round"/>
<path d="M389.831 64.6529C388.76 67.8857 387.754 71.1591 386.531 74.3404C386.289 74.9729 386.252 75.2042 386.121 74.7211C385.995 74.2557 385.872 73.9815 386.079 73.49C387.177 70.878 389.74 67.1241 392.158 65.6652C394.768 64.0897 393.344 69.3816 392.993 70.4529C392.599 71.656 391.538 74.9535 392.745 71.7627C393.462 69.8638 395.11 65.1445 397.888 65.8314C399.57 66.2474 399.182 68.5219 398.885 69.7246C398.336 71.9425 397.791 74.1455 397.241 76.3708C396.437 79.6225 396.871 77.8665 397.459 75.4903" stroke="#00ADB5" stroke-opacity="0.5" stroke-width="2" stroke-linecap="round" stroke-linejoin="round"/>
<path d="M410.569 57.5746C408.893 63.6026 406.837 69.6134 405.393 75.7041C405.224 76.4184 404.854 79.0633 405.992 79.3784C407.072 79.6777 411.341 77.1129 410.298 76.2237" stroke="#00ADB5" stroke-opacity="0.5" stroke-width="2" stroke-linecap="round" stroke-linejoin="round"/>
<path d="M120.427 303.46C116.464 310.989 112.513 318.525 108.539 326.048C107.407 328.193 105.171 334.753 104.894 332.344C104.519 329.077 106.515 324.504 107.362 321.443C108.557 317.122 110.991 308.491 117.056 308.522C121.634 308.547 126.781 315.26 127.491 319.449C127.992 322.406 129.45 319.066 131.428 318.174" stroke="#00ADB5" stroke-opacity="0.5" stroke-width="2" stroke-linecap="round" stroke-linejoin="round"/>
<path d="M132.712 327.581C135.376 333.775 139.302 344.246 147.386 338.485C151.101 335.838 149.255 331.308 145.588 329.869C136.601 326.343 125.276 336.189 123.035 344.282C120.794 352.374 129.64 354.855 135.725 355.654C139.092 356.096 138.337 353.218 141.234 352.216" stroke="#00ADB5" stroke-opacity="0.5" stroke-width="2" stroke-linecap="round" stroke-linejoin="round"/>
<path d="M155.095 348.997C148.113 346.082 138.864 343.483 134.93 352.405C133.033 356.705 141.52 357.21 144.038 357.091C148.846 356.865 159.552 345.735 155.945 348.922C152.779 351.719 149.576 355.02 148.274 359.15C147.434 361.818 148.399 367.711 151.492 363.641" stroke="#00ADB5" stroke-opacity="0.5" stroke-width="2" stroke-linecap="round" stroke-linejoin="round"/>
<path d="M182.244 354.579C172.111 355.551 160.102 356.06 156.507 367.445C154.74 373.041 158.886 376.933 163.882 378.575C167.373 379.723 170.932 377.231 173.05 374.703" stroke="#00ADB5" stroke-opacity="0.5" stroke-width="2" stroke-linecap="round" stroke-linejoin="round"/>
<path d="M191.448 356.123C190.892 356.799 165.931 384.004 177.829 384.214C181.124 384.273 184.505 382.356 186.773 380.201" stroke="#00ADB5" stroke-opacity="0.5" stroke-width="2" stroke-linecap="round" stroke-linejoin="round"/>
<path d="M170.305 361.073C175.098 364.378 179.823 367.878 185.08 370.432C186.445 371.096 188.72 371.412 189.66 372.788C190.188 373.561 189.358 371.725 189.266 371.458" stroke="#00ADB5" stroke-opacity="0.5" stroke-width="2" stroke-linecap="round" stroke-linejoin="round"/>
<path d="M116.848 143.255C120.87 150.133 133.642 170.199 128.457 164.15C125.143 160.283 122.625 155.151 120.524 150.576C118.319 145.776 116.248 137.211 124.651 137.645C131.864 138.019 134.743 145.384 136.012 151.421C136.571 154.084 136.714 156.153 137.909 158.575C139.13 161.052 139.198 151.509 139.662 149.033" stroke="#00ADB5" stroke-opacity="0.5" stroke-width="2" stroke-linecap="round" stroke-linejoin="round"/>
<path d="M142.833 129.267C143.057 130.307 146.533 154.092 151.579 149.518C153.704 147.592 154.171 142.844 154.444 140.243C155.296 132.114 151.862 131.11 146.155 129.39C143.433 128.569 142.875 128.606 142.127 131.409C140.592 137.164 143.012 135.547 146.113 132.347" stroke="#00ADB5" stroke-opacity="0.5" stroke-width="2" stroke-linecap="round" stroke-linejoin="round"/>
<path d="M164.773 122.557C161.97 127.282 158.395 132.84 160.367 138.627C161.185 141.028 163.088 140.393 164.421 139.042C166.524 136.909 167.621 133.404 167.504 130.475C167.28 124.861 163.763 120.057 160.072 116.068C159.561 115.514 154.9 111.673 155.813 114.971C157.452 120.896 162.015 126.595 165.194 131.745C170.434 140.232 172.041 136.936 174.395 128.969" stroke="#00ADB5" stroke-opacity="0.5" stroke-width="2" stroke-linecap="round" stroke-linejoin="round"/>
<path d="M174.893 124.026C176.633 125.649 190.363 135.456 190.789 126.757C190.827 125.968 189.821 125.721 189.49 125.049C188.635 123.316 187.219 122.173 186.449 121.264" stroke="#00ADB5" stroke-opacity="0.5" stroke-width="2" stroke-linecap="round" stroke-linejoin="round"/>
<path d="M176.038 129.921C170.602 122.782 163.008 115.36 170.792 108.302C174.072 105.328 180.878 107.68 180.7 112.648C180.617 114.962 180.129 120.685 176.805 121.289C175.048 121.608 174.238 120.458 175.863 118.85" stroke="#00ADB5" stroke-opacity="0.5" stroke-width="2" stroke-linecap="round" stroke-linejoin="round"/>
<path d="M188.448 100.313C191.963 102.549 217.008 117.35 203.89 123.819C201.845 124.828 200.046 122.478 198.959 120.966C196.509 117.558 203.647 112.723 203.944 109.113" stroke="#00ADB5" stroke-opacity="0.5" stroke-width="2" stroke-linecap="round" stroke-linejoin="round"/>
<path d="M209.005 88.4142C206.959 90.0849 195.225 100.462 204.452 102.468C209.549 103.577 214.366 98.4977 218.24 95.9626C224.48 91.8787 225.798 99.7372 224.083 104.173C223.033 106.889 214.266 115.779 216.665 108.711" stroke="#00ADB5" stroke-opacity="0.5" stroke-width="2" stroke-linecap="round" stroke-linejoin="round"/>
<path d="M278.261 474.65C270.455 478.578 260.226 485.742 268.665 495.247C272.713 499.807 280.186 497.939 285.517 497.412C287.015 497.264 291.148 498.705 290.023 497.705C287.589 495.542 285.838 495.681 285.108 492.029" stroke="#00ADB5" stroke-opacity="0.5" stroke-width="2" stroke-linecap="round" stroke-linejoin="round"/>
<path d="M301.434 472.016C301.434 477.771 301.38 481.891 307.285 484.129C309.835 485.096 311.436 485.983 312.113 488.84C312.878 492.069 310.625 496.747 307.958 498.553C304.661 500.786 300.52 501.565 296.811 500.045C293.634 498.743 297.146 497.204 298.8 495.715" stroke="#00ADB5" stroke-opacity="0.5" stroke-width="2" stroke-linecap="round" stroke-linejoin="round"/>
<path d="M327.239 465.697C326.203 469.71 321.534 480.443 325.688 484.597C327.365 486.274 330.612 485.343 332.68 485.826C334.738 486.307 336.503 487.882 337.771 489.513C339.779 492.094 337.868 496.006 335.548 497.822C331.948 500.639 326.806 499.402 322.616 499.402C320.328 499.402 321.891 499.24 323.025 497.822" stroke="#00ADB5" stroke-opacity="0.5" stroke-width="2" stroke-linecap="round" stroke-linejoin="round"/>
<path d="M318.16 415.752C322.217 414.204 329.742 411.74 333.666 408.964C337.809 406.034 333.472 405.192 331.267 405.892C327.533 407.079 325.277 410.99 324.011 414.436C320.679 423.507 331.279 433.761 340.191 432.722C348.426 431.761 349.575 427.729 350.811 421.545" stroke="#00ADB5" stroke-opacity="0.5" stroke-width="2" stroke-linecap="round" stroke-linejoin="round"/>
<path d="M356.078 411.012C355.155 412.515 346.39 430.561 343.965 422.072" stroke="#00ADB5" stroke-opacity="0.5" stroke-width="2" stroke-linecap="round" stroke-linejoin="round"/>
<path d="M339.752 411.539C343.45 416.482 352.384 434.156 361.344 433.658C362.644 433.586 360.92 428.583 360.818 427.865" stroke="#00ADB5" stroke-opacity="0.5" stroke-width="2" stroke-linecap="round" stroke-linejoin="round"/>
<path d="M363.977 411.539C366.02 423.506 370.112 459.674 367.781 447.76C366.579 441.617 355.603 408.374 365.265 409.754C369.455 410.353 380.151 416.466 377.348 422.072C375.772 425.224 366.005 426.324 370.297 424.178" stroke="#00ADB5" stroke-opacity="0.5" stroke-width="2" stroke-linecap="round" stroke-linejoin="round"/>
<path d="M383.99 419.965C385.291 426.736 386.543 433.502 387.676 440.299C387.87 441.463 387.61 440.504 387.267 439.861C385.113 435.821 382.163 428.623 382.264 424.091C382.359 419.797 388.266 416.869 391.363 419.965" stroke="#00ADB5" stroke-opacity="0.5" stroke-width="2" stroke-linecap="round" stroke-linejoin="round"/>
<path d="M400.843 427.865C400.706 432.821 404.301 450.172 412.838 445.127C414.061 444.404 417.079 442.638 417.168 441.031C417.216 440.174 415.657 439.978 415.062 439.978C413.497 439.978 413.106 438.037 412.429 436.818" stroke="#00ADB5" stroke-opacity="0.5" stroke-width="2" stroke-linecap="round" stroke-linejoin="round"/>
<path d="M398.209 429.445C402.822 424.673 408.01 418.099 412.107 426.607C413.306 429.098 412.888 432.099 411.902 434.594C410.308 438.625 404.601 440.215 406.109 434.185" stroke="#00ADB5" stroke-opacity="0.5" stroke-width="2" stroke-linecap="round" stroke-linejoin="round"/>
<path d="M426.648 419.965C430.257 425.733 444.855 441.281 435.279 448.375C432.215 450.644 430.215 450.634 426.765 450.51C421.894 450.336 424.468 449.102 426.121 445.244" stroke="#00ADB5" stroke-opacity="0.5" stroke-width="2" stroke-linecap="round" stroke-linejoin="round"/>
<path d="M448.766 417.859C447.676 419.178 433.594 432.792 442.154 434.243C445.309 434.778 448.209 432.867 451.107 434.799C456.336 438.285 455.097 443.01 450.288 445.975C447.884 447.458 445.202 448.235 442.681 449.457C441.256 450.148 442.774 448.147 442.973 447.351" stroke="#00ADB5" stroke-opacity="0.5" stroke-width="2" stroke-linecap="round" stroke-linejoin="round"/>
<path d="M436.654 412.066C435.431 412.964 422.264 420.271 424.132 424.705C426.487 430.299 427.266 423.413 427.701 421.019" stroke="#00ADB5" stroke-opacity="0.5" stroke-width="2" stroke-linecap="round" stroke-linejoin="round"/>
<path d="M112.971 239.793C115.317 234.263 114.356 229.444 114.356 223.712C114.356 222.597 114.154 219.201 115.325 218.593C117.173 217.634 118.9 216.994 121.08 216.994C122.53 216.994 123.986 217.036 125.435 216.994C126.884 216.953 128.288 216.363 129.72 216.188C132.386 215.861 135.159 216.316 137.791 216.316C139.881 216.316 142.043 216.587 144.054 216.587C144.411 216.587 145.866 216.757 146.1 216.964C146.818 217.597 146.612 218.612 147.178 219.166" stroke="#00ADB5" stroke-opacity="0.5" stroke-linecap="round" stroke-linejoin="round"/>
<path d="M147.04 219.656C147.131 221.288 147.165 223.578 147.837 225.173C148.272 226.206 147.925 227.582 148.013 228.683C148.182 230.795 147.867 232.855 147.867 234.905C147.867 237.654 148.005 240.369 148.005 243.104C148.005 245.451 145.712 245.058 143.898 244.728C142.331 244.443 140.228 245.015 138.595 245.035C135.445 245.074 132.28 245.311 129.124 245.311C126.489 245.311 124.532 244.545 122.105 243.625C120.809 243.133 120.026 243.242 118.634 243.242C117.316 243.242 116.231 243.036 114.91 243.449C114.137 243.69 112.752 243.482 112.312 242.69C111.785 241.741 112.833 241.329 112.833 240.552C112.833 239.9 112.751 238.034 112.971 239.794" stroke="#00ADB5" stroke-opacity="0.5" stroke-linecap="round" stroke-linejoin="round"/>
<path d="M128.695 223.242C128.695 223.242 129.247 223.518 129.799 224.07C130.35 224.483 131.512 224.277 132.488 224.277C133.002 224.277 133.545 223.876 134.005 223.671C134.939 223.256 134.382 224.037 134.159 224.483C133.911 224.978 134.194 225.898 134.641 226.208C135.38 226.719 136.111 226.277 136.833 225.916C137.133 225.766 137.051 225.697 137.143 225.901C137.269 226.178 137.247 226.58 137.247 226.882C137.247 227.569 137.202 228.712 136.833 229.311C136.348 230.099 135.858 230.609 135.078 231.188C134.308 231.761 133.29 232.759 132.266 232.759C130.265 232.759 128.141 232.323 127.14 230.376C126.715 229.551 125.937 228.875 125.937 227.932C125.937 227.144 125.676 226.201 125.937 225.449C126.252 224.537 127.04 223.671 126.764 223.671C126.905 223.711 128.143 222.966 128.695 223.242Z" stroke="#00ADB5" stroke-opacity="0.5" stroke-linecap="round" stroke-linejoin="round"/>
<path d="M130.971 222.759C131.747 222.472 133.519 221.87 133.936 220.932C134.259 220.206 133.193 220.07 132.626 220.07C131.938 220.07 131.123 221.02 130.94 221.621C130.839 221.956 130.742 222.298 130.642 222.637C130.593 222.8 130.658 222.918 130.691 223.07C130.717 223.185 131.769 222.632 131.73 222.474" stroke="#00ADB5" stroke-opacity="0.5" stroke-linecap="round" stroke-linejoin="round"/>
<path d="M144.908 238.273L114.37 238.944C111.139 239.015 108.557 241.654 108.557 244.885C108.557 248.167 111.218 250.828 114.5 250.828H145.04C148.353 250.828 151.04 248.142 151.04 244.828V244.272C151.04 240.906 148.272 238.199 144.908 238.273Z" stroke="#00ADB5" stroke-opacity="0.5"/>
<path d="M121.059 238.777C121.517 239.487 121.912 240.34 122.438 240.997C122.702 241.327 122.66 241.26 123.173 241.07C124.028 240.753 124.997 240.981 125.89 240.981C126.674 240.981 127.585 240.571 128.347 240.777C129.229 241.014 130.269 240.561 131.138 240.54C132.184 240.515 133.182 240.613 134.222 240.613C134.85 240.613 135.461 240.246 136.042 240.246C136.379 240.246 137.34 240.513 137.364 239.895C137.376 239.594 137.511 239.302 137.511 238.997C137.511 238.586 137.265 238.764 136.85 238.557" stroke="#00ADB5" stroke-opacity="0.5" stroke-linecap="round" stroke-linejoin="round"/>
<path d="M270.48 88.0062C271.046 87.2862 272.131 85.9538 270.611 85.7182C270.267 85.6649 269.945 85.4628 269.608 85.6158C268.568 86.0869 267.602 87.1242 267.602 88.3575C267.602 90.3274 269.763 90.7539 271.332 90.7284C273.98 90.6854 274.786 88.1056 275.721 86.0158C276.666 83.9049 277.715 81.8281 278.695 79.7323C279.804 77.3608 281.623 75.4717 282.774 73.1219C283.267 72.1143 283.911 71.227 284.547 70.307C285.532 68.8799 286.235 67.4402 286.94 65.8578C287.518 64.5596 288.159 63.3741 288.867 62.1453C289.154 61.6484 289.046 60.8871 289.594 61.4184C290.01 61.8217 290.672 62.0867 291.231 62.1892C293.678 62.6373 295.929 63.1116 298.449 62.9112C300.998 62.7085 303.545 62.3434 306.054 61.8574C306.907 61.6922 306.543 61.8911 306.141 62.4087C305.459 63.2866 304.876 64.217 304.223 65.1065C303.371 66.2666 303.071 67.6636 302.566 68.9898C302.012 70.4477 301.352 71.8402 300.822 73.3219C299.799 76.1856 298.306 78.7972 296.458 81.2007C295.387 82.5936 294.065 85.0264 292.06 84.9279C288.957 84.7755 291.052 78.6678 292.534 77.4735C293.332 76.8306 294.205 77.5228 294.302 78.3858C294.436 79.5717 294.029 81.1967 292.878 81.7764C291.664 82.388 290.733 82.3146 291.667 80.7373C292.233 79.7829 292.569 80.8332 292.801 80.3665" stroke="#00ADB5" stroke-opacity="0.5" stroke-width="2" stroke-linecap="round" stroke-linejoin="round"/>
<path d="M504.308 300.769C504.874 300.048 505.959 298.716 504.439 298.481C504.095 298.427 503.773 298.225 503.436 298.378C502.396 298.849 501.431 299.887 501.431 301.12C501.431 303.09 503.591 303.516 505.16 303.491C507.808 303.448 508.614 300.868 509.549 298.778C510.494 296.667 511.543 294.59 512.523 292.495C513.632 290.123 515.451 288.234 516.602 285.884C517.095 284.877 517.74 283.989 518.375 283.069C519.36 281.642 520.063 280.202 520.768 278.62C521.346 277.322 521.987 276.136 522.696 274.908C522.982 274.411 522.874 273.649 523.422 274.181C523.838 274.584 524.5 274.849 525.059 274.951C527.507 275.4 529.757 275.874 532.277 275.673C534.826 275.471 537.373 275.106 539.882 274.62C540.735 274.455 540.371 274.653 539.969 275.171C539.287 276.049 538.705 276.979 538.051 277.869C537.199 279.029 536.899 280.426 536.394 281.752C535.84 283.21 535.18 284.602 534.651 286.084C533.627 288.948 532.134 291.56 530.286 293.963C529.215 295.356 527.893 297.789 525.888 297.69C522.785 297.538 524.88 291.43 526.363 290.236C527.16 289.593 528.033 290.285 528.131 291.148C528.264 292.334 527.858 293.959 526.706 294.539C525.492 295.15 524.561 295.077 525.495 293.5C526.061 292.545 526.397 293.596 526.629 293.129" stroke="#00ADB5" stroke-opacity="0.5" stroke-width="2" stroke-linecap="round" stroke-linejoin="round"/>
<path d="M479.306 176.664C476.71 171.959 476.863 170.615 477.455 165.879C477.781 163.272 477.906 160.723 478.565 158.158C479.745 153.57 480.128 147.391 476.434 143.697C469.165 136.428 455.628 146.766 459.727 155.988C461.287 159.498 463.983 162.097 465.93 165.407C466.711 166.735 467.148 168.174 468.164 169.415C469.137 170.605 470.346 172.086 470.346 173.563C470.346 174.811 469.974 176.429 470.857 177.532C472.076 179.056 471.642 178.272 473.447 178.272C474.688 178.272 476.518 177.286 477.519 176.486C478.233 175.914 478.617 177.567 478.617 175.975C478.617 174.608 478.177 175.745 479.076 175.745" stroke="#00ADB5" stroke-opacity="0.5" stroke-linecap="round" stroke-linejoin="round"/>
<path d="M473.562 181.029C476.019 180.297 482.819 178.661 481.245 180.685C479.346 183.126 478.534 181.903 476.204 182.421C475.012 182.685 473.851 186.363 475.17 186.441C477.055 186.552 478.305 184.016 480.224 184.016C481.972 184.016 481.846 186.315 480.799 187.13C479.415 188.206 477.824 187.05 476.893 188.726C475.422 191.374 479.441 190.943 480.582 190.321C481.731 189.694 482.824 188.715 483.67 188.151" stroke="#00ADB5" stroke-opacity="0.5" stroke-linecap="round" stroke-linejoin="round"/>
<path d="M479.306 175.918C479.275 176.118 479.242 177.468 478.703 177.468C478.412 177.468 478.279 177.292 478.014 177.44C477.702 177.613 477.409 178.021 477.111 178.26C476.848 178.47 476.067 178.444 475.917 178.706C475.672 179.135 475.175 179.37 474.711 179.421C474.109 179.488 473.887 179.79 473.246 179.648C473.051 179.604 473.031 179.479 472.848 179.479C472.565 179.479 472.442 179.614 472.229 179.377C471.992 179.114 471.606 178.991 471.492 178.592C471.337 178.049 470.768 177.764 471.61 178.1" stroke="#00ADB5" stroke-opacity="0.5" stroke-linecap="round" stroke-linejoin="round"/>
<path d="M468.221 153.174C469.249 153.179 470.098 153.246 470.448 154.335C470.686 155.077 470.691 155.805 470.691 156.575C470.691 157.324 470.231 157.926 470.231 158.63C470.231 159.561 470.976 159.409 471.606 159.693C472.202 159.961 472.633 160.184 472.956 160.784C473.276 161.377 473.034 162.525 472.991 163.171C472.954 163.726 472.69 164.906 473.074 165.375C473.283 165.63 474.423 166.024 473.677 165.465" stroke="#00ADB5" stroke-opacity="0.5" stroke-linecap="round" stroke-linejoin="round"/>
<path d="M459.548 163.569C458.725 164.116 457.887 164.574 456.967 164.919C456.581 165.064 456.073 165.322 456.16 164.718" stroke="#00ADB5" stroke-opacity="0.5" stroke-linecap="round" stroke-linejoin="round"/>
<path d="M456.562 155.643C455.104 155.995 453.655 156.39 452.21 156.779C451.969 156.844 452.521 156.236 452.542 156.218" stroke="#00ADB5" stroke-opacity="0.5" stroke-linecap="round" stroke-linejoin="round"/>
<path d="M456.16 148.12C454.65 147.9 453.144 147.628 451.642 147.36C450.95 147.237 450.657 147.328 451.048 146.741" stroke="#00ADB5" stroke-opacity="0.5" stroke-linecap="round" stroke-linejoin="round"/>
<path d="M464.315 140.136C463.122 139.927 462.088 139.725 461.01 139.185C460.505 138.933 460.019 138.63 459.491 138.426C458.863 138.184 458.85 138.258 459.548 137.839" stroke="#00ADB5" stroke-opacity="0.5" stroke-linecap="round" stroke-linejoin="round"/>
<path d="M474.711 134.967C474.885 136.186 474.828 136.916 474.335 138.021C474.069 138.616 473.844 139.369 473.713 140.012C473.667 140.233 473.642 140.359 473.492 140.526C473.436 140.588 473.642 139.848 473.677 139.734" stroke="#00ADB5" stroke-opacity="0.5" stroke-linecap="round" stroke-linejoin="round"/>
<path d="M483.498 139.849C483.117 141.118 482.574 142.336 482.248 143.608C482.083 144.251 482.186 144.29 482.465 143.64" stroke="#00ADB5" stroke-opacity="0.5" stroke-linecap="round" stroke-linejoin="round"/>
<path d="M487.174 148.981C485.869 150.11 484.799 151.512 483.786 152.899C483.659 153.073 483.512 153.135 483.371 153.276C483.051 153.596 483.603 152.873 483.671 152.772" stroke="#00ADB5" stroke-opacity="0.5" stroke-linecap="round" stroke-linejoin="round"/>
<path d="M194.734 264.189C196.644 272.791 198.794 281.412 200.057 290.144C200.763 295.022 199.213 287.983 199.021 286.988C198.604 284.834 198.126 282.926 198.126 280.723C198.126 276.29 198.007 271.807 197.678 267.369C197.448 264.262 193.632 255.011 198.455 262.729C203.374 270.598 206.846 279.299 210.185 287.883C210.645 289.066 211.282 290.187 211.786 291.322C212.062 291.942 206.899 286.896 204.909 285.811" stroke="#00ADB5" stroke-opacity="0.5" stroke-width="2" stroke-linecap="round" stroke-linejoin="round"/>
<path d="M191.766 283.267C197.278 281.067 209.431 276.919 212.964 270.737C214.444 268.147 214.156 269.344 209.996 270.124" stroke="#00ADB5" stroke-opacity="0.5" stroke-width="2" stroke-linecap="round" stroke-linejoin="round"/>
<path d="M208.301 254.438C212.554 262.858 215.635 271.824 216.803 281.171C216.911 282.037 217.112 282.987 217.722 283.597C217.835 283.71 215.682 279.679 215.084 278.603" stroke="#00ADB5" stroke-opacity="0.5" stroke-width="2" stroke-linecap="round" stroke-linejoin="round"/>
<path d="M208.301 254.014C211.599 255.99 223.713 263.287 215.814 267.934C215.121 268.342 214.308 268.718 213.812 269.371C212.762 270.752 212.636 271.157 213.388 269.276" stroke="#00ADB5" stroke-opacity="0.5" stroke-width="2" stroke-linecap="round" stroke-linejoin="round"/>
<path d="M219.323 249.775C220.728 259.293 223.139 269.752 223.139 279.451C223.139 281.592 222.781 277.627 222.291 276.484" stroke="#00ADB5" stroke-opacity="0.5" stroke-width="2" stroke-linecap="round" stroke-linejoin="round"/>
<path d="M229.074 266.733C231.402 273.671 232.598 277.76 225.777 279.781C223.446 280.472 226.262 277.086 226.86 276.672C228.901 275.259 230.933 270.711 228.65 268.428C227.742 267.52 225.568 268.667 224.929 267.581C223.986 265.979 226.098 262.945 227.378 262.163C231.059 259.914 230.596 263.084 229.074 262.069" stroke="#00ADB5" stroke-opacity="0.5" stroke-width="2" stroke-linecap="round" stroke-linejoin="round"/>
<path d="M356.425 137.985C357.831 145.379 363.616 166.97 360.25 160.238C359.888 159.513 359.585 158.898 359.555 158.075C359.442 155.03 359.215 151.847 358.164 148.957C357.285 146.54 357.469 144.034 357.469 141.462C357.469 140.947 356.593 136.892 356.677 136.865C357.562 136.57 361.213 141.006 361.873 141.771C365.211 145.639 368.586 150.084 370.971 154.617C372.199 156.95 372.569 157.786 369.638 158.152" stroke="#00ADB5" stroke-opacity="0.5" stroke-width="2" stroke-linecap="round" stroke-linejoin="round"/>
<path d="M356.078 152.936C359.341 151.281 362.449 149.958 365.814 148.764" stroke="#00ADB5" stroke-opacity="0.5" stroke-width="2" stroke-linecap="round" stroke-linejoin="round"/>
<path d="M365.466 138.333C368.807 143.337 371.989 148.663 375.878 153.284C376.433 153.943 377.597 155.14 377.597 153.593C377.597 151.482 376.428 149.3 375.897 147.296C375.049 144.09 374.259 140.869 373.541 137.637C372.847 134.517 373.336 135.682 374.507 138.024C376.447 141.903 378.489 145.437 381.19 148.88C383.01 151.199 383.199 149.908 383.199 147.875C383.199 144.184 381.397 141.148 380.07 137.83C378.652 134.286 378.747 129.448 377.134 126.221C376.506 124.966 376.419 128.943 376.245 130.335" stroke="#00ADB5" stroke-opacity="0.5" stroke-width="2" stroke-linecap="round" stroke-linejoin="round"/>
<path d="M384.242 125.815C384.331 126.224 385.626 136.347 387.913 135.203C388.915 134.702 389.16 133.169 390.192 132.653C391.864 131.818 393.671 133.298 394.326 134.74C396.059 138.552 394.064 142.967 390.926 145.287C386.579 148.5 388.067 142.716 388.067 141.114" stroke="#00ADB5" stroke-opacity="0.5" stroke-width="2" stroke-linecap="round" stroke-linejoin="round"/>
<path d="M386.329 125.12C385.703 126.83 384.565 134.768 384.223 131.688C384.012 129.786 384.387 128.34 384.59 126.511C385.072 122.172 388.393 125.662 387.024 123.381" stroke="#00ADB5" stroke-opacity="0.5" stroke-width="2" stroke-linecap="round" stroke-linejoin="round"/>
<path d="M363.14 353.508C363.024 353.295 358.008 344.657 358.442 344.408C359.044 344.064 360.167 344.399 360.876 344.133C362.969 343.348 364.655 341.728 366.378 340.388C368.19 338.978 370.672 350.036 371.224 352.365C371.891 355.183 373.629 358.929 370.377 360.555C367.446 362.021 363.589 361.578 360.389 361.507C355.168 361.391 351.56 352.821 350.951 348.556C350.507 345.451 346.207 335.483 350.824 333.489C352.06 332.955 354.16 333.32 355.501 333.32C357.419 333.32 359.094 332.177 361.045 332.177C364.149 332.177 365.088 336.055 362.378 331.796" stroke="#00ADB5" stroke-opacity="0.5" stroke-width="2" stroke-linecap="round" stroke-linejoin="round"/>
<path d="M371.901 334.843C372.442 336.815 374.183 347.762 378.757 344.959C379.628 344.425 380.261 343.131 380.577 342.208C381.42 339.742 381.597 337.683 379.709 335.796C378.295 334.381 375.564 331.494 373.509 331.415C368.413 331.219 372.909 336.927 372.282 335.986" stroke="#00ADB5" stroke-opacity="0.5" stroke-width="2" stroke-linecap="round" stroke-linejoin="round"/>
<path d="M372.663 317.321C376.425 323.27 382.102 329.812 384.386 336.663C384.677 337.537 384.688 338.131 385.233 338.949C386.055 340.182 386.444 341.972 387.222 340.091C388.349 337.368 390.917 334.951 392.936 332.854C395.426 330.268 395.767 331.034 391.327 331.034" stroke="#00ADB5" stroke-opacity="0.5" stroke-width="2" stroke-linecap="round" stroke-linejoin="round"/>
<path d="M398.946 315.417C398.473 316.484 391.297 330.685 398.226 327.458C399.605 326.816 401.011 325.817 400.829 324.178C400.653 322.598 399.334 321.356 398.649 319.988C398.263 319.214 396.717 315.489 397.253 316.559C398.844 319.741 400.98 325.408 403.347 327.775C406.105 330.533 407.757 327.635 405.04 326.082" stroke="#00ADB5" stroke-opacity="0.5" stroke-width="2" stroke-linecap="round" stroke-linejoin="round"/>
<path d="M403.136 316.94C413.738 333.758 400.322 314.888 403.411 311.586C406.4 308.391 409.931 314.527 411.05 316.475C412.999 319.868 414.918 328.671 411.897 319.607" stroke="#00ADB5" stroke-opacity="0.5" stroke-width="2" stroke-linecap="round" stroke-linejoin="round"/>
<path d="M416.468 302.466C416.288 303.101 410.601 319.105 414.859 317.618C416.669 316.986 418.486 315.555 419.451 313.914C420.565 312.02 421.084 309.423 420.277 307.333C419.726 305.908 419.131 304.386 418.372 303.058C416.569 299.904 421.428 309.652 422.88 312.983C425.006 317.86 430.128 334.959 418.055 331.563C412.789 330.082 417.748 321.892 417.229 321.892" stroke="#00ADB5" stroke-opacity="0.5" stroke-width="2" stroke-linecap="round" stroke-linejoin="round"/>
<path d="M266.549 223.765C268.442 223.245 270.056 222.721 271.387 221.223C271.912 220.633 271.983 219.879 272.251 219.164C272.6 218.235 272.166 217.046 271.868 216.154C271.631 215.441 272.93 215.041 273.394 215.011C274.191 214.96 274.801 215.467 275.567 215.512C276.488 215.566 277.47 215.861 278.109 216.58C278.542 217.067 279.123 217.182 279.602 217.605C280.057 218.006 280.416 218.706 280.745 219.22C281.697 220.707 281.966 222.442 282.243 224.143C282.375 224.959 282.456 225.846 282.318 226.67C282.154 227.654 282.329 228.6 281.94 229.543C281.672 230.194 281.243 231.057 280.632 231.442C280.005 231.837 279.422 231.979 279.262 232.798C278.927 234.508 279.786 236.183 279.455 237.909C279.162 239.442 277.136 239.676 275.884 239.922C275.019 240.091 273.448 240.356 272.615 239.903C271.063 239.059 269.939 238.005 268.788 236.662C267.769 235.472 267.383 233.733 267.248 232.212C267.111 230.659 267.109 228.973 267.144 227.403C267.167 226.361 267.471 225.314 267.569 224.275C267.65 223.425 267.92 223.357 267.484 224.445" stroke="#00ADB5" stroke-opacity="0.5" stroke-linecap="round" stroke-linejoin="round"/>
<path d="M277.519 216.027C278.158 214.378 278.861 212.73 279.352 211.029C279.572 210.265 279.625 209.455 279.9 208.709C280.219 207.842 280.377 206.862 280.514 205.955C280.612 205.305 280.66 204.154 281.255 203.744C281.69 203.445 281.938 202.762 282.403 202.402C283.001 201.941 283.851 201.512 284.274 200.895C284.69 200.29 285.134 199.04 284.784 198.34C284.59 197.951 284.617 197.532 284.425 197.149C284.176 196.651 283.952 196.247 283.764 195.708C283.599 195.237 283.08 194.295 283.684 193.96C285.159 193.141 285.262 194.431 285.72 195.609C285.956 196.218 285.992 196.961 286.211 197.593C286.361 198.026 286.627 197.713 286.83 197.962C287.136 198.336 287.151 198.804 287.383 199.209C287.729 199.815 287.322 201.044 287.146 201.637C286.821 202.735 286.486 203.729 286.003 204.783C284.76 207.499 282.734 209.786 281.345 212.418C280.816 213.419 280.393 214.428 280.136 215.536C279.989 216.165 279.559 216.765 279.559 217.43C279.559 218.037 279.409 218.348 279.729 217.387" stroke="#00ADB5" stroke-opacity="0.5" stroke-linecap="round" stroke-linejoin="round"/>
<path d="M284.151 195.534C283.068 195.7 281.887 195.763 280.92 196.247C280.787 196.313 280.993 196.14 281.09 196.129C282.386 195.976 283.802 194.82 284.983 194.258C285.861 193.84 287.062 192.898 288.063 192.898C288.353 192.898 287.099 193.705 286.957 193.833" stroke="#00ADB5" stroke-opacity="0.5" stroke-linecap="round" stroke-linejoin="round"/>
<path d="M283.046 197.404C284.251 196.704 286.35 195.944 287.231 194.768C287.317 194.654 287.38 194.5 287.505 194.428C287.943 194.178 287.169 194.457 287.042 194.513" stroke="#00ADB5" stroke-opacity="0.5" stroke-linecap="round" stroke-linejoin="round"/>
<path d="M283.896 198.51C285.342 197.956 287.986 197.464 288.781 195.874C288.896 195.644 288.641 195.704 288.488 195.704" stroke="#00ADB5" stroke-opacity="0.5" stroke-linecap="round" stroke-linejoin="round"/>
<path d="M285.427 198.34C285.334 200.29 285.354 202.273 284.241 203.943C283.698 204.757 283.322 205.299 283.131 206.253C282.927 207.272 282.703 208.123 282.238 209.054C281.779 209.972 281.24 210.724 280.788 211.605C280.553 212.062 279.976 212.502 280.088 213.051C280.145 213.328 280.008 213.576 279.918 213.835C279.653 214.603 279.156 215.279 278.69 215.942C278.374 216.392 278.378 217.2 278.794 216.367" stroke="#00ADB5" stroke-opacity="0.5" stroke-linecap="round" stroke-linejoin="round"/>
<path d="M278.539 214.071C279.306 214.238 280.473 214.751 281.26 214.751C281.274 214.751 280.591 213.927 280.495 213.816" stroke="#00ADB5" stroke-opacity="0.5" stroke-linecap="round" stroke-linejoin="round"/>
<path d="M279.049 210.585C280.134 211.048 281.221 211.507 282.299 211.988C282.552 212.1 282.537 212.117 282.45 212.03C282.264 211.843 282.105 211.641 281.94 211.435" stroke="#00ADB5" stroke-opacity="0.5" stroke-linecap="round" stroke-linejoin="round"/>
<path d="M280.07 208.289C281.377 208.695 282.682 209.133 284.005 209.489C284.153 209.529 284.36 209.608 284.217 209.46C283.932 209.165 283.604 208.905 283.301 208.629" stroke="#00ADB5" stroke-opacity="0.5" stroke-linecap="round" stroke-linejoin="round"/>
<path d="M280.75 205.398C282.238 206.125 283.72 206.909 285.247 207.557C285.498 207.663 285.582 207.741 285.531 207.542C285.461 207.273 285.357 207.018 285.257 206.758" stroke="#00ADB5" stroke-opacity="0.5" stroke-linecap="round" stroke-linejoin="round"/>
<path d="M282.62 203.357C282.756 203.422 286.873 205.655 286.532 204.802" stroke="#00ADB5" stroke-opacity="0.5" stroke-linecap="round" stroke-linejoin="round"/>
<path d="M283.471 201.996C284.713 202.288 285.969 202.554 287.212 202.762" stroke="#00ADB5" stroke-opacity="0.5" stroke-linecap="round" stroke-linejoin="round"/>
<path d="M284.832 200.636C285.399 200.663 285.965 200.691 286.532 200.721" stroke="#00ADB5" stroke-opacity="0.5" stroke-linecap="round" stroke-linejoin="round"/>
<path d="M273.607 226.146C273.016 226.381 269.377 227.286 269.355 228.291C269.347 228.684 269.355 229.077 269.402 229.467C269.549 230.678 270.392 231.312 271.424 231.891C272.737 232.626 274.151 232.649 275.582 232.231C276.942 231.833 277.826 230.329 277.282 229.037C277.169 228.769 277.56 228.715 277.306 228.404C277.059 228.102 276.896 228.277 276.498 228.357" stroke="#00ADB5" stroke-opacity="0.5" stroke-linecap="round" stroke-linejoin="round"/>
<path d="M271.821 229.292C272.498 227.581 273.342 225.87 273.735 224.063C273.837 223.589 273.964 223.191 274.221 222.764C274.763 221.86 275.241 220.895 275.563 219.891C275.868 218.938 275.888 217.998 276.29 217.066C276.434 216.734 277.291 215.737 276.923 216.197" stroke="#00ADB5" stroke-opacity="0.5" stroke-linecap="round" stroke-linejoin="round"/>
<path d="M278.539 217.047C278.223 219.017 277.749 220.902 277.415 222.849C277.229 223.928 276.923 224.83 276.923 225.967C276.923 226.779 277.213 227.457 277.027 228.272C276.813 229.21 276.62 228.748 276.243 228.102" stroke="#00ADB5" stroke-opacity="0.5" stroke-linecap="round" stroke-linejoin="round"/>
<path d="M277.689 217.047C277.097 218.277 275.818 220.299 275.818 221.852C275.818 222.735 275.875 223.672 275.813 224.568C275.74 225.634 274.908 227.015 274.41 227.932C274.245 228.236 274.03 228.471 273.928 228.801C273.801 229.213 273.892 229.238 273.607 228.782" stroke="#00ADB5" stroke-opacity="0.5" stroke-linecap="round" stroke-linejoin="round"/>
<path d="M271.566 227.507C273.014 228.543 275.571 230.657 277.349 228.829C277.626 228.544 278.026 227.936 278.18 227.573C278.39 227.076 277.71 227.498 277.263 227.592" stroke="#00ADB5" stroke-opacity="0.5" stroke-linecap="round" stroke-linejoin="round"/>
<path d="M273.267 225.976C274.093 225.95 275.762 226.173 276.564 225.759C276.591 225.745 276.503 225.768 276.479 225.787C276.4 225.85 276.236 225.747 276.158 225.721" stroke="#00ADB5" stroke-opacity="0.5" stroke-linecap="round" stroke-linejoin="round"/>
<path d="M274.202 222.83C274.808 222.99 277.001 223.924 277.093 222.915" stroke="#00ADB5" stroke-opacity="0.5" stroke-linecap="round" stroke-linejoin="round"/>
<path d="M275.223 220.279C275.974 220.769 279.023 223.04 278.539 220.619" stroke="#00ADB5" stroke-opacity="0.5" stroke-linecap="round" stroke-linejoin="round"/>
<path d="M276.073 219.088C276.838 219.287 277.603 219.485 278.369 219.683" stroke="#00ADB5" stroke-opacity="0.5" stroke-linecap="round" stroke-linejoin="round"/>
<path d="M279.814 219.088C280.761 219.98 282.65 222.054 282.706 223.614C282.751 224.886 282.706 226.116 282.706 227.403C282.706 228.339 282.884 229.338 282.791 230.228C282.668 231.396 280.874 231.411 281.303 232.783C281.446 233.242 281.321 233.513 281.723 233.842C282.07 234.125 282.322 234.455 282.45 234.905C282.751 235.955 282.153 236.903 281.43 237.626C280.978 238.078 280.391 238.987 279.857 239.284C279.593 239.43 279.054 239.326 278.751 239.326C278.471 239.326 277.904 239.509 277.651 239.624C277.278 239.794 276.802 239.494 276.328 239.667" stroke="#00ADB5" stroke-opacity="0.5" stroke-linecap="round" stroke-linejoin="round"/>
<path d="M266.549 224.02C266.892 225.159 267.147 226.106 267.721 227.081C267.956 227.482 267.924 227.846 267.82 228.314C267.699 228.859 267.301 230.136 267.612 230.695C268.09 231.555 268.08 232.465 268.08 233.417C268.08 234.334 269.513 234.732 269.984 235.202C270.682 235.901 270.379 236.792 271.528 237.097C271.78 237.163 272.173 237.167 272.369 237.328C272.518 237.45 272.693 237.755 272.889 237.791C273.294 237.865 273.836 237.784 274.202 237.947C274.508 238.083 274.731 238.279 275.01 238.434C275.317 238.604 275.738 238.412 276.073 238.58C277.216 239.152 276.706 238.608 275.903 237.966" stroke="#00ADB5" stroke-opacity="0.5" stroke-linecap="round" stroke-linejoin="round"/>
<path d="M181.926 181.311C179.654 184.219 169.898 195.853 178.211 198.486C180.791 199.303 184.148 197.424 186.929 197.696C190.861 198.079 193.072 201.422 194.039 204.893C195.153 208.89 189.007 215.998 191.962 218.147C197.022 221.827 204.31 215.604 208.492 220.546C210.862 223.347 208.37 227.417 209.838 220.809" stroke="#00ADB5" stroke-opacity="0.5" stroke-linecap="round" stroke-linejoin="round"/>
<path d="M296.041 136.02C298.231 138.922 303.443 145.459 305.404 149.186C307.072 152.359 304.969 152.232 303.18 150.971C301.04 149.464 301.341 146.258 301.951 144.037C304.013 136.541 317.356 129.649 318.862 141.17C319.391 145.217 315.774 152.021 310.846 150.415C304.339 148.295 304.754 138.365 309.675 134.675C314.709 130.899 322.958 135.237 322.958 141.404C322.958 148.25 314.821 150.37 311.665 144.33C308.796 138.84 313.879 133.097 319.33 132.275C321.335 131.973 326.514 134.289 322.9 135.494" stroke="#00ADB5" stroke-opacity="0.5" stroke-linecap="round" stroke-linejoin="round"/>
<path d="M406.108 188.158C402.698 191.546 391.921 199.447 400.988 202.523C406.264 204.313 411.148 201.379 414.418 197.374C418.025 192.955 418.637 185.966 412.896 183.096C408.431 180.864 404.584 177.278 400.842 182.891" stroke="#00ADB5" stroke-opacity="0.5" stroke-linecap="round" stroke-linejoin="round"/>
<path d="M522.496 234.502C515.984 238.381 506.096 243.066 516.176 246.732C517.726 247.295 518.734 246.928 520.097 245.971C525.136 242.43 525.432 241.012 525.129 235.555C524.929 231.942 519.645 232.768 517.23 233.975C513.667 235.756 511.183 239.321 509.74 242.928C507.798 247.782 517.835 247.485 519.219 241.641C520.087 237.977 515.896 232.773 513.017 237.252C509.201 243.187 515.023 248.494 518.693 242.285C522.207 236.337 513.995 233.884 511.788 240.822C508.885 249.944 526.139 240.039 519.863 236.901C516.122 235.031 509.805 246.908 516.703 243.952C525.078 240.363 515.708 235.073 515.708 243.455C515.708 250.257 526.958 240.385 519.629 237.72C517.953 237.111 516.299 242.466 517.493 243.66C519.569 245.736 523.178 240.359 522.993 238.423C522.202 230.112 514.066 251.241 523.754 241.553C525.967 239.34 525.876 235.34 522.203 237.691C520.036 239.078 518.665 244.966 522.759 243.601C526.692 242.29 526.691 235.007 522.467 236.696C519.889 237.728 518.955 241.377 516.176 240.822" stroke="#00ADB5" stroke-opacity="0.5" stroke-linecap="round" stroke-linejoin="round"/>
<path d="M465.619 288.746C464.532 289.946 447.179 311.357 455.905 300.449C457.901 297.954 459.734 295.5 462.459 293.749C464.138 292.669 465.756 292.003 467.199 290.56C468.775 288.983 466.54 289.087 466.175 292.374C465.857 295.236 466.1 307.733 465.619 307.705C462.366 307.514 460.233 304.312 457.222 303.258C455.609 302.693 450.826 303.506 452.16 302.438C455.422 299.829 465.413 292.346 462.459 295.3C460.221 297.537 455.622 305.947 457.193 303.199C458.309 301.245 461.328 294.879 460.879 295.943C459.953 298.136 458.342 301.893 458.48 304.311C458.611 306.606 463.17 300.958 463.454 300.39C465.567 296.164 461.195 305.668 462.752 303.404C464.154 301.364 468.894 296.179 465.502 301.268C464.759 302.382 469.016 297.244 468.252 298.342C468.03 298.661 466.101 301.898 467.228 300.771C471.266 296.733 465.316 300.931 464.565 299.805" stroke="#00ADB5" stroke-opacity="0.5" stroke-linecap="round" stroke-linejoin="round"/>
<path d="M430.334 376.168C432.177 373.543 442.712 361.961 434.05 361.451C432.586 361.365 429.567 360.89 428.344 361.89C425.437 364.269 426.698 370.685 430.627 371.399C435.837 372.346 440.719 365.222 435.074 362.475C429.176 359.606 415.254 371.131 421.264 375.875C433.097 385.217 443.797 358.07 428.491 361.978C414.607 365.523 426.838 379.823 433.143 370.609C439.893 360.744 419.079 360.659 422.756 371.692C424.57 377.133 430.523 374.507 431.592 370.112C433.159 363.668 426.751 366.329 426.648 370.785C426.536 375.56 433.894 366.92 429.486 367.303C426.3 367.58 425.985 371.955 423.488 371.955" stroke="#00ADB5" stroke-opacity="0.5" stroke-linecap="round" stroke-linejoin="round"/>
<path d="M220.732 326.664C221.795 331.489 223.891 346.088 223.891 341.146C223.891 337.735 221.286 334.552 220.761 331.14C220.577 329.948 220.956 326.422 219.942 325.611C219.248 325.056 225.806 330.16 227.549 331.14C230.729 332.929 233.009 336.271 235.77 332.72C237.096 331.016 240.996 330.78 241.534 330.35C245.433 327.231 245.076 322.575 245.981 318.501C246.304 317.048 245.484 323.462 245.484 325.347C245.484 327.759 245.919 330.953 246.566 333.218C247.485 336.434 247.117 327.357 246.244 325.611C244.826 322.774 244.957 320.257 244.957 317.184C244.957 315.971 253.761 331.179 252.213 332.34C251.566 332.825 242.945 330.447 240.334 331.287C238.085 332.01 236.031 332.853 233.898 333.92C233.314 334.211 232.352 335.273 232.727 334.973C234.064 333.903 238.155 330.979 236.531 331.521C234.299 332.265 232.108 334.424 230.094 335.617C226.298 337.866 225.07 337.552 223.482 341.41C223.253 341.966 226.086 341.895 226.642 342.053C230.627 343.192 233.132 340.088 236.648 338.66C241.186 336.816 246.403 333.03 251.277 332.457C254.955 332.024 249.362 330.734 249.17 330.35" stroke="#00ADB5" stroke-opacity="0.5" stroke-linecap="round" stroke-linejoin="round"/>
<path d="M421.908 123.908C431.833 120.726 447.908 117.067 456.783 109.806C458.393 108.488 460.887 107.225 460.323 104.685C458.203 95.1454 453.59 92.908 444.495 93.9186C439.45 94.4792 434.607 99.1327 429.924 101.028C425.103 102.98 420.279 105.544 415.881 108.343C411.429 111.176 414.008 112.579 414.008 117.471C414.008 120.161 415.615 123.908 418.484 123.908C419.792 123.908 423.541 122.855 419.83 122.855C416.918 122.855 412.397 123.296 409.795 121.918C407.808 120.866 411.73 118.795 412.662 118.671C415.991 118.227 408.848 121.483 408.127 121.714C406.645 122.188 413.476 117.011 409.678 118.232C405.561 119.555 411.671 116.006 412.955 115.365C414.404 114.64 413.14 115.787 413.481 115.189C414.028 114.232 417.193 110.716 414.33 113.58C413.371 114.539 416.494 111.945 417.548 111.093C419.535 109.489 417.014 111.923 416.524 112.322C414.265 114.16 413.736 112.677 411.901 113.492C411.135 113.833 409.268 114.963 409.268 113.638C409.268 111.353 417.333 110.311 418.806 110.244C427.827 109.834 434.14 105.855 442.447 103.779C446.444 102.779 450.813 101.34 454.559 99.5654C457.338 98.2494 462.903 94.1292 465.853 94.9719C467.012 95.3031 449.129 105.708 454.267 102.316C458.517 99.5091 463.39 97.5383 457.017 102.813C451.911 107.039 460.893 102.117 461.61 102.403C462.898 102.919 453.681 108.183 460.703 104.949C463.389 103.712 465.619 103.651 465.619 100.736C465.619 96.7787 466.701 92.0887 461.669 93.9186C455.862 96.0303 451.201 100.544 445.197 102.316C441.058 103.537 437.025 105.079 432.967 106.529C428.258 108.21 419.735 110.091 416.378 114.194C414.589 116.381 411.402 124.904 417.987 121.216C424.028 117.833 424.989 110.989 428.227 105.592C429.836 102.912 425.425 111.254 424.775 114.311C424.028 117.828 427.337 121.875 431.124 121.216C435.278 120.494 439.647 114.757 441.13 111.268C448.257 94.4999 435.33 110.764 438.994 114.428C442.883 118.317 448.809 108.015 449.585 105.475C450.52 102.415 451.07 98.6434 452.189 95.7326C453.641 91.9575 444.371 96.2093 443.5 96.6396C438.678 99.0227 435.311 102.202 432.031 106.412C430.843 107.936 426.077 115.109 429.339 116.74C433.711 118.925 439.077 112.132 439.199 108.606C439.611 96.663 429.777 102.784 423.839 107.465C420.169 110.358 423.357 116.139 424.014 115.482" stroke="#00ADB5" stroke-opacity="0.5" stroke-linecap="round" stroke-linejoin="round"/>
<path d="M288.668 409.346C288.439 409.529 279.774 417.003 279.774 414.876C279.774 413.63 280.733 412.296 281.588 411.482C283.278 409.872 289.954 408.634 288.346 412.565C287.268 415.201 282.86 419.087 281.617 414.115C281.101 412.051 284.644 407.908 286.796 409.668C289.168 411.609 284.068 414.082 282.465 413.208C279.604 411.647 283.04 406.09 285.801 407.24C288.688 408.443 284.717 411.731 283.402 412.389C280.326 413.927 280.756 411.441 279.189 409.873" stroke="#00ADB5" stroke-opacity="0.5" stroke-linecap="round" stroke-linejoin="round"/>
<path d="M145.949 408.82C148.985 413.822 154.767 419.013 148.875 423.566C147.355 424.74 138.39 429.435 138.927 423.975C139.581 417.326 149.49 417.178 150.103 411.219C150.71 405.325 136.635 407.546 133.427 403.553C131.417 401.052 129.796 395.509 130.267 392.318C130.45 391.075 133.602 388.663 133.28 390.914C132.692 395.034 119.407 405.588 127.282 409.054C132.563 411.377 133.925 405.494 137.815 404.08C145.828 401.166 133.836 422.777 133.836 417.246" stroke="#00ADB5" stroke-opacity="0.5" stroke-linecap="round" stroke-linejoin="round"/>
<path d="M404.002 477.283C401.563 483.054 396.629 500.84 396.629 494.574C396.629 493.597 396.818 492.825 397.156 491.912C398.741 487.621 400.577 483.628 403.241 479.857C404.696 477.799 406.429 471.772 408.508 476.346C409.478 478.48 412.253 484.422 411.082 486.762C409.614 489.7 405.054 491.385 402.013 491.502C401.22 491.532 392.913 492.624 395.605 490.156C398.769 487.256 401.83 478.436 406.606 477.839C407.343 477.746 408.884 478.239 409.532 478.599C410.673 479.233 409.283 480.378 408.742 481.262C408.093 482.322 402.959 489.483 402.949 489.161C402.803 484.362 407.727 477.395 410.38 473.772C411.332 472.473 406.269 481.291 405.114 483.281C404.22 484.82 405.386 488.092 401.369 487.289" stroke="#00ADB5" stroke-opacity="0.5" stroke-linecap="round" stroke-linejoin="round"/>
<path d="M240.744 53.8648C238.394 63.0569 236.301 71.8151 235.448 81.1915C235.363 82.1294 234.77 82.7358 235.36 83.4736C236.239 84.5717 238.562 77.5897 239.457 75.7203C242.29 69.7949 245.484 67.4566 245.484 60.1844C245.484 59.1351 245.484 53.0956 245.484 57.0831C245.484 60.4685 246.125 63.8144 245.893 67.2063C245.718 69.77 243.257 76.6889 245.074 74.8718C247.879 72.0672 245.632 58.0049 241.241 57.639C235.248 57.1396 232.359 70.129 231.674 74.1696C230.877 78.8708 234.192 80.839 237.847 77.1832C242.837 72.1934 243.919 61.9347 239.632 56.0884C233.742 48.0564 229.877 62.5488 229.392 66.0945C228.295 74.1151 232.775 76.6853 238.081 70.9806C240.033 68.8824 243.968 65.2543 243.143 61.9984C242.045 57.6676 235.644 61.8731 234.366 63.7539C232.553 66.4209 232.577 73.064 235.507 74.9596C238.242 76.7295 240.904 69.3957 240.598 67.5574C239.298 59.7611 224.602 72.1374 231.908 76.5688C238.267 80.4256 242.482 63.1709 234.658 65.3046C232.48 65.8987 227.305 71.7705 231.791 71.7705" stroke="#00ADB5" stroke-opacity="0.5" stroke-linecap="round" stroke-linejoin="round"/>
<path d="M101.184 203.957C98.8179 210.662 97.1142 214.942 91.1198 218.703C89.6147 219.647 87.6257 221.318 87.3163 223.209C86.6552 227.249 93.0278 231.701 96.6495 230.494C104.281 227.95 92.733 220.397 91.5001 218.205C89.3535 214.389 97.1119 207.534 100.687 209.545C103.47 211.111 104.704 216.566 103.057 219.229C100.658 223.11 95.5021 223.263 91.4709 222.653C88.2604 222.166 81.8296 222.828 83.7176 227.597C86.08 233.565 97.2299 230.437 98.9023 225.374C100.531 220.444 91.7155 218.586 93.6067 213.963C94.9057 210.788 99.0073 206.824 102.647 206.824C107.007 206.824 102.653 214.969 102.004 216.245C99.1353 221.883 94.7467 222.445 89.1888 223.969C78.7281 226.837 89.9973 227.241 90.6516 223.969" stroke="#00ADB5" stroke-opacity="0.5" stroke-linecap="round" stroke-linejoin="round"/>
<path d="M88.545 276.107C87.427 280.316 84.1217 287.501 84.4489 292.081C84.6022 294.228 85.1885 287.84 85.4436 285.703C85.9297 281.632 86.4858 277.034 88.662 273.473C89.0482 272.841 97.9802 283.991 98.7852 285.82C100.939 290.716 98.2423 289.784 94.8646 291.379C92.9874 292.266 80.1772 296.787 80.1772 295.592C80.1772 294.34 82.5923 291.795 83.1615 290.735C84.9434 287.42 86.8551 283.258 87.6087 279.559C89.2182 271.658 88.0183 287.917 88.0183 289.155C88.0183 289.907 88.3104 294.305 86.5554 294.305C84.359 294.305 88.0403 290.171 88.779 288.102C89.5624 285.909 92.6807 279.444 91.9096 277.131C90.8175 273.854 90.2711 283.89 90.1541 287.341C90.0748 289.681 88.9428 293.586 90.7685 289.799C91.3503 288.592 93.2283 283.645 93.1969 284.006C92.9322 287.051 91.7048 290.19 91.7048 293.252C91.7048 296.385 93.3578 286.298 96.2105 285.001C96.9198 284.678 95.9179 290.625 95.9179 291.496C95.9179 293.081 97.4393 285.405 97.4393 286.99C97.4393 287.432 96.8081 290.103 96.3275 289.272C94.358 285.871 92.8762 283.768 88.8375 282.543C86.9982 281.985 81.1516 282.368 83.0738 282.368C84.3372 282.368 86.3215 277.971 87.7257 279.12C89.5888 280.644 87.0319 285.51 86.4384 287.166C85.4666 289.877 84.8581 286.064 87.2576 286.347C89.7578 286.641 87.207 295.873 88.6035 293.778C89.2516 292.806 91.2148 288.01 91.1489 288.57C89.8741 299.406 90.1394 285.608 92.2314 288.746" stroke="#00ADB5" stroke-opacity="0.5" stroke-linecap="round" stroke-linejoin="round"/>
<path d="M349.232 132.861C355.932 132.53 362.403 135.007 361.344 127.068C360.82 123.134 358.615 116.702 359.764 112.848C360.985 108.757 368.476 99.5299 362.076 96.6396C356.709 94.2159 349.695 101.07 348.705 105.709C348.293 107.639 348.381 113.668 351.572 113.668C353.984 113.668 355.524 111.3 357.629 113.404C360.38 116.155 360.871 118.665 358.916 122.123C354.224 130.424 335.661 121.152 345.662 111.151C347.033 109.781 352.455 103.494 355.025 105.3C358.56 107.784 358.082 114.253 356.254 117.471C354.43 120.68 347.738 124.041 345.106 119.929C343.806 117.897 344.428 116.535 346.598 116.535" stroke="#00ADB5" stroke-opacity="0.5" stroke-linecap="round" stroke-linejoin="round"/>
<path d="M405.337 182.146C405.955 181.896 425.221 172.385 424.325 177.611C423.844 180.415 424.165 183.031 424.559 185.832C424.71 186.904 427.321 195.253 424.705 195.253C419.831 195.253 415.073 192.805 410.193 193.732C408.17 194.116 404.141 195.502 403.991 192.269C403.878 189.844 401.864 178.945 406.653 180.01C410.601 180.887 410.772 177.754 407.97 184.72C407.572 185.709 404.957 193.14 405.395 192.795C409.776 189.353 412.179 182.735 416.191 178.722C418.697 176.217 414.402 186.273 413.88 187.529C411.214 193.947 418.028 182.09 418.795 180.917C422.163 175.766 419.606 184.987 419.088 186.505C417.53 191.068 422.319 182.548 424.237 181.414C430.593 177.658 424.588 190.63 423.242 187.939" stroke="#00ADB5" stroke-opacity="0.5" stroke-linecap="round" stroke-linejoin="round"/>
<path d="M353.445 281.373C353.747 289.114 353.612 293.337 360.174 288.453C362.036 287.068 361.245 290.346 360.788 291.145C360.026 292.48 355.555 299.189 360.057 296.616C361.197 295.965 364.27 294.665 364.27 297.172C364.27 297.568 362.892 302.412 364.241 301.063C366.451 298.853 366.491 290.521 366.611 287.283C366.637 286.576 366.946 285.754 366.318 286.113C363.09 287.957 361.557 297.615 359.881 301.385C358.435 304.64 354.264 300.805 351.865 299.279C347.318 296.385 350.177 298.44 350.285 298.225" stroke="#00ADB5" stroke-opacity="0.5" stroke-linecap="round" stroke-linejoin="round"/>
<path d="M317.107 350.363C317.087 350.608 316.469 365.726 316.58 358.379C316.614 356.137 316.549 353.893 316.58 351.65C316.667 345.281 317.804 348.236 320.559 350.86C321.822 352.063 326.457 354.66 325.708 357.092C325.488 357.809 318.048 359.104 316.872 359.55C315.991 359.884 310.787 363.161 310.787 363.002C310.787 359.089 312.165 354.854 312.63 350.948C313.615 342.677 319.338 364.818 319.71 359.228C319.798 357.912 319.74 350.077 319.74 352.031C319.74 353.485 320.793 361.241 320.793 356.156C320.793 355.005 320.793 353.854 320.793 352.703C320.793 352.161 321.089 354.758 321.29 354.254C322.02 352.43 320.793 348.762 320.793 353.23C320.793 358.246 319.387 354.634 316.317 354.634C313.69 354.634 312.186 364.26 313.537 362.007C314.721 360.035 312.389 352.002 313.42 356.127C313.96 358.286 315.257 355.899 316.053 355.103" stroke="#00ADB5" stroke-opacity="0.5" stroke-linecap="round" stroke-linejoin="round"/>
<path fill-rule="evenodd" clip-rule="evenodd" d="M314.611 294.861C312.169 293.97 309.842 292.668 307.72 290.859C291.696 277.208 298.567 256.612 308.264 245.889C317.962 235.167 377.284 239.444 349.299 289.118C349.181 289.189 349.061 289.26 348.939 289.332C345.81 299.288 348.449 307.827 351.615 318.072C352.906 322.251 354.285 326.714 355.396 331.672L325.716 329.546C317.558 318.468 314.465 307.302 314.611 294.861Z" fill="#664138"/>
<path d="M307.72 290.859L307.266 291.392L307.72 290.859ZM314.611 294.861L314.851 294.204C315.13 294.306 315.314 294.573 315.311 294.869L314.611 294.861ZM308.264 245.889L308.783 246.359L308.264 245.889ZM349.299 289.118L349.909 289.461C349.849 289.566 349.764 289.654 349.66 289.717L349.299 289.118ZM348.939 289.332L348.272 289.122C348.324 288.957 348.435 288.817 348.585 288.729L348.939 289.332ZM351.615 318.072L350.946 318.279L351.615 318.072ZM355.396 331.672L356.078 331.519C356.127 331.735 356.07 331.961 355.926 332.129C355.782 332.296 355.567 332.386 355.346 332.37L355.396 331.672ZM325.716 329.546L325.666 330.243C325.462 330.229 325.274 330.125 325.153 329.96L325.716 329.546ZM308.173 290.327C310.229 292.078 312.481 293.34 314.851 294.204L314.372 295.518C311.856 294.601 309.456 293.257 307.266 291.392L308.173 290.327ZM308.783 246.359C304.016 251.63 299.95 259.328 299.042 267.355C298.138 275.35 300.361 283.671 308.173 290.327L307.266 291.392C299.055 284.396 296.702 275.594 297.652 267.198C298.598 258.833 302.816 250.872 307.746 245.42L308.783 246.359ZM348.69 288.774C355.639 276.439 357.097 267.046 355.378 260.066C353.664 253.105 348.752 248.393 342.613 245.487C336.465 242.577 329.134 241.507 322.738 241.833C319.543 241.996 316.602 242.506 314.176 243.296C311.737 244.09 309.88 245.146 308.783 246.359L307.746 245.42C309.073 243.952 311.191 242.797 313.743 241.966C316.308 241.131 319.374 240.604 322.667 240.436C329.246 240.101 336.815 241.195 343.212 244.223C349.618 247.255 354.895 252.255 356.736 259.732C358.573 267.19 356.952 276.959 349.909 289.461L348.69 288.774ZM348.585 288.729C348.705 288.658 348.823 288.588 348.939 288.518L349.66 289.717C349.54 289.789 349.418 289.862 349.293 289.935L348.585 288.729ZM350.946 318.279C347.79 308.063 345.068 299.316 348.272 289.122L349.606 289.542C346.552 299.259 349.108 307.591 352.283 317.866L350.946 318.279ZM354.713 331.825C353.609 326.898 352.238 322.46 350.946 318.279L352.283 317.866C353.573 322.042 354.96 326.53 356.078 331.519L354.713 331.825ZM325.766 328.848L355.446 330.975L355.346 332.37L325.666 330.243L325.766 328.848ZM315.311 294.869C315.167 307.17 318.218 318.185 326.279 329.131L325.153 329.96C316.899 318.752 313.764 307.435 313.912 294.853L315.311 294.869Z" fill="black"/>
<path d="M354.624 259.12C359.268 265.582 354.266 281.541 350.575 285.532C381.158 268.563 361.796 230.276 352.36 237.258C350.822 223.103 334.58 218.108 323.507 230.08C295.747 207.662 294.286 245.862 304.085 251.671C313.883 257.48 325.771 251.948 331.94 254.944C338.11 257.939 341.917 276.085 343.915 266.014C345.914 255.943 348.818 251.044 354.624 259.12Z" fill="#00ADB5" stroke="black" stroke-width="1.39887"/>
<path d="M382.072 540.989L339.023 537.865L349.383 421.989C349.383 421.989 299.437 303.63 342.312 303.63C402.893 303.63 423.151 396.966 422.396 421.989C421.64 447.012 382.072 540.989 382.072 540.989Z" fill="#EEEEEE" stroke="black" stroke-width="1.39887"/>
<path d="M338.697 542.877L339.299 537.645L382.651 539.387L381.695 547.795C380.15 561.389 366.534 570.155 353.519 565.935C343.72 562.757 337.52 553.111 338.697 542.877Z" fill="#664138" stroke="black" stroke-width="1.39887" stroke-linejoin="round"/>
<path d="M276.211 457.602C248.208 430.451 283.008 340.516 288.684 329.813C296.947 314.561 321.75 288.028 354.852 303.912C404.909 327.932 382.035 446.78 373.037 487.978L276.211 457.602Z" fill="#EEEEEE" stroke="black" stroke-width="1.39887"/>
<path d="M58.1542 551.857L53.6416 511.065C53.6416 511.065 158.411 477.111 244.758 464.371L363.316 474.612C381.125 516.696 372.342 594.038 240.256 558.481L58.1542 551.857Z" fill="#00ADB5" stroke="black" stroke-width="1.39887"/>
<path fill-rule="evenodd" clip-rule="evenodd" d="M185.109 480.389L166.494 538.285L127.438 536.377L109.617 428.371C106.665 410.479 120.469 394.21 138.603 394.21L162.767 394.21L164.436 391.601L172.548 394.21C179.031 394.218 184.901 396.281 189.658 399.714L353.786 452.51C379.168 460.675 390.584 490.144 377.327 513.278L352.219 557.092C339.186 579.835 308.714 585.179 288.72 568.228L185.109 480.389Z" fill="#00ADB5"/>
<path d="M185.109 480.389L185.561 479.855L184.763 479.179L184.443 480.175L185.109 480.389ZM166.494 538.285L166.46 538.983L166.996 539.009L167.16 538.499L166.494 538.285ZM127.438 536.377L126.747 536.49L126.839 537.048L127.403 537.075L127.438 536.377ZM109.617 428.371L110.307 428.257L109.617 428.371ZM138.603 394.21V394.91V394.91V394.21ZM162.767 394.21V394.91H163.15L163.356 394.587L162.767 394.21ZM164.436 391.601L164.651 390.935L164.138 390.77L163.847 391.224L164.436 391.601ZM172.548 394.21L172.334 394.876L172.438 394.91L172.547 394.91L172.548 394.21ZM189.658 399.714L189.249 400.281L189.339 400.346L189.444 400.38L189.658 399.714ZM353.786 452.51L353.571 453.176L353.786 452.51ZM377.327 513.278L376.72 512.931V512.931L377.327 513.278ZM352.219 557.092L351.612 556.744L352.219 557.092ZM288.72 568.228L288.267 568.761L288.72 568.228ZM184.443 480.175L165.828 538.07L167.16 538.499L185.775 480.603L184.443 480.175ZM166.528 537.586L127.472 535.678L127.403 537.075L166.46 538.983L166.528 537.586ZM128.128 536.263L110.307 428.257L108.927 428.485L126.747 536.49L128.128 536.263ZM110.307 428.257C107.425 410.791 120.9 394.91 138.603 394.91L138.603 393.511C120.037 393.511 105.904 410.166 108.927 428.485L110.307 428.257ZM138.603 394.91L162.767 394.91V393.511L138.603 393.511V394.91ZM163.356 394.587L165.026 391.978L163.847 391.224L162.178 393.833L163.356 394.587ZM164.222 392.267L172.334 394.876L172.762 393.544L164.651 390.935L164.222 392.267ZM172.547 394.91C178.879 394.917 184.606 396.931 189.249 400.281L190.068 399.147C185.195 395.631 179.183 393.519 172.549 393.511L172.547 394.91ZM189.444 400.38L353.571 453.176L354 451.844L189.873 399.048L189.444 400.38ZM353.571 453.176C378.53 461.204 389.757 490.182 376.72 512.931L377.934 513.626C391.412 490.106 379.806 460.145 354 451.844L353.571 453.176ZM376.72 512.931L351.612 556.744L352.826 557.44L377.934 513.626L376.72 512.931ZM351.612 556.744C338.796 579.108 308.833 584.363 289.172 567.694L288.267 568.761C308.595 585.995 339.575 580.562 352.826 557.44L351.612 556.744ZM289.172 567.694L185.561 479.855L184.657 480.923L288.267 568.761L289.172 567.694Z" fill="black"/>
<path d="M126.988 535.936L166.926 538.298L170.022 571.825C170.022 571.825 134.986 570.809 113.732 564.161L128.018 557.14L126.988 535.936Z" fill="#EEEEEE" stroke="black" stroke-width="1.39887" stroke-linejoin="round"/>
<rect width="97.773" height="18.3324" rx="2.00878" transform="matrix(0.258819 0.965926 0.965926 -0.258819 113.528 291.538)" fill="#EEEEEE" stroke="black" stroke-width="1.39887"/>
<rect width="97.773" height="18.3324" rx="2.00878" transform="matrix(-1 0 0 1 232.723 376.418)" fill="#00ADB5" stroke="black" stroke-width="1.39887"/>
<path d="M53.9524 511.095L58.8922 551.877L29.0809 560.105C29.0809 560.105 23.4642 524.966 26.186 502.521L36.0313 515.456L53.9524 511.095Z" fill="#EEEEEE" stroke="black" stroke-width="1.39887" stroke-linejoin="round"/>
<path d="M201.994 405.615L224.366 368.338L292.96 405.689C289.815 362.582 319.402 300.546 350.471 304.325C404.976 310.953 364.821 445.301 329.116 468.983C293.41 492.664 201.994 405.615 201.994 405.615Z" fill="#EEEEEE"/>
<path d="M372.174 386.777C363.738 422.124 345.933 457.829 329.116 468.983C293.41 492.664 201.994 405.615 201.994 405.615L224.366 368.338L292.96 405.689L316.274 347.2" stroke="black" stroke-width="1.39887"/>
<path d="M220.293 365.51L224.578 368.573L202.038 405.645L195.148 400.734C184.007 392.792 182.94 376.633 192.941 367.296C200.471 360.266 211.913 359.519 220.293 365.51Z" fill="#664138" stroke="black" stroke-width="1.39887" stroke-linejoin="round"/>
</g>
<defs>
<clipPath id="clip0_114_2">
<rect width="572" height="616" fill="white"/>
</clipPath>
</defs>
</svg>
