<svg width="23" height="38" viewBox="0 0 23 38" fill="none" xmlns="http://www.w3.org/2000/svg">
<path fill-rule="evenodd" clip-rule="evenodd" d="M11.5 -4.37114e-08C12.0523 -6.78525e-08 12.5 0.447715 12.5 1L12.5 37C12.5 37.5523 12.0523 38 11.5 38C10.9477 38 10.5 37.5523 10.5 37L10.5 1C10.5 0.447715 10.9477 -1.95703e-08 11.5 -4.37114e-08Z" fill="#EEEEEE" fill-opacity="0.75"/>
<path fill-rule="evenodd" clip-rule="evenodd" d="M0.292893 25.7929C0.683417 25.4024 1.31658 25.4024 1.70711 25.7929L11.5 35.5858L21.2929 25.7929C21.6834 25.4024 22.3166 25.4024 22.7071 25.7929C23.0976 26.1834 23.0976 26.8166 22.7071 27.2071L12.2071 37.7071C11.8166 38.0976 11.1834 38.0976 10.7929 37.7071L0.292893 27.2071C-0.0976311 26.8166 -0.0976311 26.1834 0.292893 25.7929Z" fill="#EEEEEE" fill-opacity="0.75"/>
</svg>
